<svg width="255" height="240" viewBox="0 0 255 240" fill="none" xmlns="http://www.w3.org/2000/svg">
<g id="background">
<g id="Group">
<g id="Group_2">
<path id="Vector" d="M116.41 54.3053C116.484 55.4436 116.52 56.582 116.594 57.6836C116.594 57.9039 116.741 58.1976 116.999 58.1976C147.974 62.4572 179.207 58.8586 210.293 58.932C219.085 58.932 227.84 59.2625 236.596 60.1071C236.817 60.1438 237.074 59.9235 237.111 59.7032C237.405 58.1976 237.736 56.6921 238.031 55.1866C238.178 54.4889 237.111 54.1952 236.964 54.8928C236.669 56.3984 236.338 57.9039 236.044 59.4094C236.228 59.2625 236.412 59.1524 236.559 59.0055C205.768 55.9944 174.866 59.7766 144.001 59.1156C135.061 58.932 126.122 58.3445 117.256 57.1328C117.403 57.3164 117.514 57.5 117.661 57.6468C117.587 56.5085 117.55 55.3702 117.477 54.2686C117.477 53.6076 116.373 53.6076 116.41 54.3053Z" fill="#C8CCD1"/>
</g>
</g>
<g id="Group_3">
<g id="Group_4">
<path id="Vector_2" d="M117.33 54.8561C148.452 54.8561 179.611 54.8561 210.734 54.8561C219.563 54.8561 228.392 54.8561 237.221 54.8561C237.92 54.8561 237.92 53.7545 237.221 53.7545C206.099 53.7545 174.939 53.7545 143.817 53.7545C134.988 53.7545 126.159 53.7545 117.33 53.7545C116.631 53.7545 116.631 54.8561 117.33 54.8561Z" fill="#C8CCD1"/>
</g>
</g>
<g id="Group_5">
<g id="Group_6">
<path id="Vector_3" d="M124.025 53.9748C124.945 40.7924 125.717 27.5732 126.858 14.4274C127.005 12.7016 127.189 11.0125 127.483 9.32337C127.593 8.69913 127.63 7.41394 127.998 6.89986C128.476 6.2389 129.506 6.2389 130.242 6.12874C131.934 5.83498 134.767 4.80682 135.944 6.53266C136.275 7.04674 136.349 8.11162 136.459 8.73586C136.68 9.83745 136.827 10.9391 136.937 12.0407C137.526 18.5034 136.68 25.0762 136.202 31.5389C135.65 39.0298 135.098 46.5207 134.546 54.0115C134.509 54.7092 135.613 54.7092 135.65 54.0115C136.459 43.2893 137.342 32.6038 138.004 21.8816C138.299 16.9611 138.446 11.9305 137.232 7.08346C136.901 5.72482 136.386 4.5865 134.841 4.43962C132.486 4.25602 129.764 5.06386 127.483 5.54122C127.299 5.57794 127.152 5.76154 127.115 5.90842C125.165 13.5094 125.239 21.698 124.687 29.4826C124.099 37.6344 123.547 45.823 122.958 53.9748C122.885 54.6725 123.988 54.6725 124.025 53.9748Z" fill="#C8CCD1"/>
</g>
</g>
<g id="Group_7">
<g id="Group_8">
<path id="Vector_4" d="M137.71 20.8167C142.198 32.0897 146.944 43.2526 151.91 54.3053C152.204 54.9663 153.161 54.3787 152.866 53.7545C147.937 42.7752 143.228 31.6858 138.777 20.523C138.519 19.862 137.452 20.1558 137.71 20.8167Z" fill="#C8CCD1"/>
</g>
</g>
<g id="Group_9">
<g id="Group_10">
<path id="Vector_5" d="M138.667 14.9048C139.586 12.2977 142.419 10.8656 145.068 11.6C145.767 11.7836 146.061 10.7187 145.362 10.5351C142.125 9.61713 138.703 11.4531 137.6 14.611C137.379 15.3087 138.446 15.5658 138.667 14.9048Z" fill="#C8CCD1"/>
</g>
</g>
<g id="Group_11">
<g id="Group_12">
<path id="Vector_6" d="M145.068 11.8203C152.352 25.9208 159.599 40.058 166.883 54.1584C167.214 54.7827 168.171 54.2319 167.839 53.6076C160.555 39.5072 153.308 25.37 146.024 11.2695C145.693 10.6086 144.737 11.1594 145.068 11.8203Z" fill="#C8CCD1"/>
</g>
</g>
<g id="Group_13">
<g id="Group_14">
<path id="Vector_7" d="M164.234 2.34656C165.411 19.4213 166.588 36.4961 167.729 53.5709C167.766 54.2686 168.869 54.2686 168.832 53.5709C167.655 36.4961 166.478 19.4213 165.338 2.34656C165.301 1.64888 164.197 1.64888 164.234 2.34656Z" fill="#C8CCD1"/>
</g>
</g>
<g id="Group_15">
<g id="Group_16">
<path id="Vector_8" d="M165.191 2.93409C167.067 1.24498 169.605 1.24498 171.96 1.6489C172.916 1.79578 173.946 1.97938 174.866 2.30986C176.558 2.9341 176.301 4.47633 176.374 5.98185C176.595 11.2328 176.779 16.4838 177 21.7347C177.404 32.3468 177.846 42.9956 178.25 53.6076C178.287 54.3053 179.391 54.3053 179.354 53.6076C178.839 40.9025 178.361 28.1974 177.846 15.529C177.735 12.3711 177.588 9.17648 177.478 6.01857C177.404 4.40289 177.625 2.42001 175.933 1.53874C174.167 0.620737 171.445 0.290256 169.458 0.326976C167.545 0.363696 165.853 0.877775 164.455 2.16297C163.903 2.60361 164.676 3.41145 165.191 2.93409Z" fill="#C8CCD1"/>
</g>
</g>
<g id="Group_17">
<g id="Group_18">
<path id="Vector_9" d="M145.95 11.1961C149.445 11.4164 152.867 12.4446 156.214 13.3993C159.304 14.2806 162.321 15.3822 164.933 17.2916C165.522 17.6955 166.073 16.7408 165.485 16.3369C162.763 14.3907 159.672 13.2524 156.472 12.3344C153.014 11.343 149.519 10.3515 145.914 10.0945C145.215 10.021 145.215 11.1226 145.95 11.1961Z" fill="#C8CCD1"/>
</g>
</g>
<g id="Group_19">
<g id="Group_20">
<path id="Vector_10" d="M177.662 9.24992C179.28 8.84601 181.083 8.44208 182.775 8.77256C185.277 9.28664 185.792 11.4898 185.902 13.7298C186.086 18.2463 186.16 22.7261 186.27 27.2427C186.491 36.1289 186.601 45.0151 186.638 53.9014C186.638 54.599 187.742 54.599 187.742 53.9014C187.705 43.2893 187.558 32.714 187.263 22.1386C187.19 19.5682 187.116 17.0346 187.043 14.4642C186.969 12.775 187.006 10.9023 185.976 9.47025C184.063 6.78969 180.127 7.45065 177.404 8.14833C176.668 8.36865 176.963 9.43352 177.662 9.24992Z" fill="#C8CCD1"/>
</g>
</g>
<g id="Group_21">
<g id="Group_22">
<path id="Vector_11" d="M185.718 3.44817C185.718 6.75297 185.718 10.021 185.718 13.3258C185.718 14.0235 186.822 14.0235 186.822 13.3258C186.822 10.021 186.822 6.75297 186.822 3.44817C186.822 2.75049 185.718 2.75049 185.718 3.44817Z" fill="#C8CCD1"/>
</g>
</g>
<g id="Group_23">
<g id="Group_24">
<path id="Vector_12" d="M187.337 3.85208C187.631 3.96224 187.962 4.0724 188.256 4.18256C188.293 4.4396 188.33 4.69665 188.367 4.9904C188.44 5.57792 188.44 6.20216 188.514 6.8264C188.587 7.78112 188.661 8.77256 188.735 9.72727C188.882 11.7836 188.992 13.8766 189.102 15.9329C189.36 20.1925 189.544 24.452 189.691 28.7115C190.022 37.1203 190.133 45.5292 190.133 53.9381C190.133 54.6358 191.236 54.6358 191.236 53.9381C191.236 43.4729 191.015 32.971 190.537 22.5058C190.28 17.4017 189.985 12.2977 189.618 7.1936C189.544 5.94512 189.765 3.66849 188.624 2.78721C187.852 2.19969 186.785 2.42001 186.38 3.30129C186.123 3.96224 187.042 4.51304 187.337 3.85208Z" fill="#C8CCD1"/>
</g>
</g>
<g id="Group_25">
<g id="Group_26">
<path id="Vector_13" d="M133.112 59.7031C134.252 61.6125 135.356 64.4767 137.195 65.8353C138.998 67.194 141.205 65.9822 143.192 66.6799C143.854 66.9002 144.148 65.8353 143.486 65.615C141.72 64.9908 139.66 65.9822 138.078 64.9908C136.275 63.8892 135.135 60.9149 134.068 59.1156C133.7 58.5281 132.744 59.0789 133.112 59.7031Z" fill="#C8CCD1"/>
</g>
</g>
<g id="Group_27">
<g id="Group_28">
<path id="Vector_14" d="M144.663 60.1805C144.516 62.0899 143.927 63.8158 142.971 65.4315C142.603 66.0557 143.559 66.6065 143.927 65.9823C145.031 64.183 145.62 62.2368 145.767 60.1805C145.84 59.4828 144.737 59.4828 144.663 60.1805Z" fill="#C8CCD1"/>
</g>
</g>
<g id="Group_29">
<g id="Group_30">
<path id="Vector_15" d="M141.536 61.0984C141.867 62.7876 142.198 64.4767 142.566 66.1658C142.713 66.8635 143.78 66.5697 143.633 65.8721C143.302 64.1829 142.971 62.4938 142.603 60.8047C142.456 60.107 141.389 60.4008 141.536 61.0984Z" fill="#C8CCD1"/>
</g>
</g>
<g id="Group_31">
<g id="Group_32">
<path id="Vector_16" d="M142.86 61.0618C142.934 61.0618 143.008 61.0985 143.081 61.1352C143.192 61.3555 143.191 61.5758 143.155 61.7961C143.118 62.0532 143.008 62.3102 142.934 62.5673C142.787 63.0813 142.75 63.5587 142.897 64.0728C143.118 64.7705 144.074 64.4767 143.964 63.779C143.78 62.7876 143.927 61.7961 144.332 60.8782C143.964 60.8414 143.596 60.768 143.265 60.7313C143.155 61.8696 143.081 63.0446 142.971 64.1829C142.897 64.8806 144.001 64.8806 144.074 64.1829C144.185 63.0446 144.258 61.8696 144.369 60.7313C144.442 60.0703 143.486 60.0703 143.302 60.5844C142.824 61.7227 142.75 62.8977 142.934 64.0728C143.302 63.9626 143.633 63.8892 144.001 63.779C143.67 62.6774 144.957 61.3188 143.854 60.3274C143.191 59.7398 142.125 59.9602 141.867 60.8047C141.573 61.4657 142.64 61.7594 142.86 61.0618Z" fill="#C8CCD1"/>
</g>
</g>
<g id="Group_33">
<g id="Group_34">
<path id="Vector_17" d="M200.507 53.0201C200.176 51.6615 200.029 50.3395 200.139 48.9442C199.955 49.1278 199.771 49.3114 199.587 49.495C206.099 49.1645 212.61 48.7606 219.122 48.6137C222.396 48.5403 225.67 48.5403 228.944 48.6137C229.68 48.6137 230.415 48.6504 231.114 48.6504C231.85 48.6871 233.358 48.4301 234.021 48.7606C235.492 49.4583 234.867 52.2857 234.867 53.5709C234.867 54.2686 235.97 54.2686 235.97 53.5709C235.97 51.8451 236.853 48.1731 234.499 47.6957C232.88 47.3652 230.967 47.5488 229.312 47.5121C227.252 47.4754 225.192 47.4387 223.131 47.4754C215.296 47.5121 207.46 47.9895 199.587 48.3934C199.293 48.3934 199.035 48.6504 199.035 48.9442C198.962 50.4497 199.072 51.8818 199.477 53.3139C199.587 54.0115 200.654 53.7178 200.507 53.0201Z" fill="#C8CCD1"/>
</g>
</g>
<g id="Group_35">
<g id="Group_36">
<path id="Vector_18" d="M204.59 41.9674C205.032 43.987 205.363 46.0066 205.51 48.0629C205.547 48.7606 206.65 48.7606 206.614 48.0629C206.466 45.8964 206.135 43.7667 205.657 41.6737C205.51 41.0127 204.443 41.3065 204.59 41.9674Z" fill="#C8CCD1"/>
</g>
</g>
<g id="Group_37">
<g id="Group_38">
<path id="Vector_19" d="M205.326 42.6651C209.777 42.2979 214.229 41.8939 218.68 42.0775C222.874 42.2611 227.104 43.6198 231.298 43.1791C231.114 42.9955 230.93 42.8119 230.746 42.6283C230.599 44.5745 230.82 46.4105 231.445 48.2832C231.666 48.9442 232.733 48.6504 232.512 47.9895C231.924 46.2269 231.703 44.5011 231.85 42.6283C231.887 42.3346 231.593 42.0408 231.298 42.0775C227.104 42.4815 222.874 41.1228 218.68 40.9759C214.229 40.7923 209.741 41.1963 205.326 41.5635C204.627 41.6002 204.627 42.7018 205.326 42.6651Z" fill="#C8CCD1"/>
</g>
</g>
<g id="Group_39">
<g id="Group_40">
<path id="Vector_20" d="M167.876 156.607C167.876 158.149 167.876 159.655 167.876 161.197C167.876 161.895 168.98 161.895 168.98 161.197C168.98 159.655 168.98 158.149 168.98 156.607C168.98 155.909 167.876 155.909 167.876 156.607Z" fill="#C8CCD1"/>
</g>
</g>
<g id="Group_41">
<g id="Group_42">
<path id="Vector_21" d="M168.428 156.24C197.049 156.24 225.67 156.24 254.291 156.24C254.99 156.24 254.99 155.138 254.291 155.138C225.67 155.138 197.049 155.138 168.428 155.138C167.692 155.138 167.692 156.24 168.428 156.24Z" fill="#C8CCD1"/>
</g>
</g>
<g id="Group_43">
<g id="Group_44">
<path id="Vector_22" d="M169.311 161.307C197.49 161.307 225.633 161.307 253.813 161.307C254.511 161.307 254.511 160.206 253.813 160.206C225.633 160.206 197.49 160.206 169.311 160.206C168.612 160.206 168.612 161.307 169.311 161.307Z" fill="#C8CCD1"/>
</g>
</g>
<g id="Group_45">
<g id="Group_46">
<path id="Vector_23" d="M253.739 156.607C253.739 157.672 253.739 158.737 253.739 159.802C253.739 160.499 254.842 160.499 254.842 159.802C254.842 158.737 254.842 157.672 254.842 156.607C254.842 155.909 253.739 155.909 253.739 156.607Z" fill="#C8CCD1"/>
</g>
</g>
<g id="Group_47">
<g id="Group_48">
<path id="Vector_24" d="M176.374 144.232C177.33 148.015 178.213 151.833 178.949 155.652C179.096 156.35 180.163 156.056 180.016 155.359C179.28 151.54 178.434 147.721 177.441 143.939C177.257 143.241 176.19 143.535 176.374 144.232Z" fill="#C8CCD1"/>
</g>
</g>
<g id="Group_49">
<g id="Group_50">
<path id="Vector_25" d="M195.504 143.902C194.621 147.684 193.885 151.466 193.333 155.285C193.223 155.983 194.29 156.277 194.4 155.579C194.952 151.76 195.688 147.941 196.571 144.196C196.718 143.498 195.651 143.204 195.504 143.902Z" fill="#C8CCD1"/>
</g>
</g>
<g id="Group_51">
<g id="Group_52">
<path id="Vector_26" d="M173.358 142.176C173.431 144.086 176.301 143.939 177.699 144.012C180.862 144.159 184.063 143.682 187.227 143.498C188.808 143.388 190.39 143.351 191.972 143.498C193.26 143.608 194.658 144.049 195.909 143.792C197.306 143.498 198.189 142.176 197.38 140.891C197.012 140.303 196.056 140.854 196.424 141.442C197.454 143.168 193.959 142.617 193.628 142.58C192.855 142.47 192.046 142.396 191.273 142.36C189.471 142.25 187.631 142.36 185.829 142.507C184.651 142.58 174.498 143.792 174.461 142.176C174.461 141.442 173.358 141.442 173.358 142.176Z" fill="#C8CCD1"/>
</g>
</g>
<g id="Group_53">
<g id="Group_54">
<path id="Vector_27" d="M174.645 142.029C173.983 139.973 179.685 140.193 180.641 140.156C182.334 140.083 184.063 140.01 185.755 139.936C186.675 139.899 196.239 139.642 195.982 140.34C195.761 141.001 196.828 141.295 197.049 140.634C198.152 137.366 186.196 138.798 184.651 138.871C181.782 138.981 178.581 138.724 175.785 139.275C174.314 139.569 173.063 140.671 173.578 142.286C173.799 142.984 174.866 142.69 174.645 142.029Z" fill="#C8CCD1"/>
</g>
</g>
<g id="Group_55">
<g id="Group_56">
<path id="Vector_28" d="M179.538 138.981C177.846 138.21 176.337 137.109 175.16 135.713C174.682 135.126 171.297 130.242 173.284 129.948C173.615 129.912 173.799 129.398 173.615 129.141C172.548 127.598 172.107 125.615 171.555 123.853C170.929 121.943 170.341 120.034 169.715 118.161C169.605 117.757 169.421 117.39 169.348 116.986C169.164 116.215 169.053 116.215 169.973 116.142C170.966 116.068 171.481 116.839 172.144 117.5C173.394 118.749 174.498 120.107 175.491 121.54C179.207 126.901 181.267 133.216 182.812 139.496C182.996 140.193 184.063 139.899 183.879 139.202C181.892 131.197 178.986 122.972 173.1 116.913C172.291 116.068 170.746 114.122 169.384 114.342C168.354 114.526 168.06 115.628 168.134 116.546C168.281 118.602 169.384 120.842 170.047 122.825C170.782 125.101 171.261 127.745 172.659 129.728C172.769 129.471 172.879 129.177 172.99 128.92C170.562 129.287 171.96 132.666 172.622 133.988C174.02 136.668 176.264 138.724 178.986 140.01C179.611 140.23 180.163 139.275 179.538 138.981Z" fill="#C8CCD1"/>
</g>
</g>
<g id="Group_57">
<g id="Group_58">
<path id="Vector_29" d="M180.789 128.92C180.678 124.257 180.568 119.41 182.15 114.967C182.922 112.8 184.1 110.854 185.461 109.018C185.792 108.541 186.16 107.77 186.675 107.476C187.043 106.888 187.594 106.815 188.293 107.292C189.176 107.072 189.618 107.292 189.618 107.953C190.059 108.945 189.912 110.634 189.912 111.662C189.912 114.122 189.323 116.399 188.735 118.749C188.514 119.557 188.33 120.401 188.404 121.209C188.477 122.164 188.992 122.898 189.25 123.779C189.986 126.276 188.698 128.847 187.815 131.123C186.932 133.51 186.013 135.897 185.13 138.321C184.872 138.981 185.939 139.275 186.197 138.614C187.374 135.456 188.625 132.335 189.728 129.141C190.501 126.901 190.869 124.954 189.986 122.751C188.808 119.777 190.685 116.435 190.942 113.388C191.089 111.405 191.42 108.027 190.133 106.264C187.337 102.408 182.886 110.634 182.003 112.47C179.501 117.61 179.538 123.375 179.685 128.957C179.722 129.655 180.825 129.655 180.789 128.92Z" fill="#C8CCD1"/>
</g>
</g>
<g id="Group_59">
<g id="Group_60">
<path id="Vector_30" d="M171.518 119.887C175.16 124.991 177.331 131.123 179.869 136.815C180.163 137.476 181.12 136.888 180.825 136.264C178.324 130.536 176.117 124.44 172.475 119.336C172.07 118.749 171.114 119.3 171.518 119.887Z" fill="#C8CCD1"/>
</g>
</g>
<g id="Group_61">
<g id="Group_62">
<path id="Vector_31" d="M181.672 117.28C181.819 119.226 182.481 120.952 183.695 122.457C184.136 123.008 184.909 122.237 184.468 121.686C183.474 120.401 182.886 118.896 182.775 117.28C182.739 116.582 181.635 116.582 181.672 117.28Z" fill="#C8CCD1"/>
</g>
</g>
<g id="Group_63">
<g id="Group_64">
<path id="Vector_32" d="M186.675 117.023C187.558 115.701 188.477 114.379 189.36 113.057C189.765 112.47 188.808 111.919 188.404 112.506C187.521 113.828 186.601 115.15 185.718 116.472C185.35 117.06 186.307 117.61 186.675 117.023Z" fill="#C8CCD1"/>
</g>
</g>
<g id="Group_65">
<g id="Group_66">
<path id="Vector_33" d="M197.637 116.289C196.718 117.757 195.393 118.896 194.179 120.071C192.855 121.319 191.531 122.604 190.206 123.853C189.691 124.33 190.464 125.138 190.979 124.624C193.517 122.2 196.718 119.85 198.594 116.839C198.962 116.252 198.005 115.701 197.637 116.289Z" fill="#C8CCD1"/>
</g>
</g>
<g id="Group_67">
<g id="Group_68">
<path id="Vector_34" d="M197.159 117.757C197.233 119.704 200.47 123.302 197.968 124.477C197.637 124.661 197.637 125.101 197.858 125.358C198.704 126.387 198.152 127.929 198.042 129.141C197.931 130.499 198.042 131.858 197.674 133.18C197.012 135.713 194.657 137.219 192.56 138.541C191.972 138.908 192.524 139.863 193.112 139.496C195.651 137.88 198.263 136.044 198.851 132.886C199.145 131.197 199.145 129.434 199.293 127.745C199.44 126.533 199.403 125.579 198.594 124.624C198.557 124.918 198.52 125.212 198.483 125.505C201.978 123.853 198.299 120.107 198.226 117.831C198.226 117.06 197.122 117.06 197.159 117.757Z" fill="#C8CCD1"/>
</g>
</g>
<g id="Group_69">
<g id="Group_70">
<path id="Vector_35" d="M195.393 123.155C192.855 127.231 190.684 131.491 188.882 135.97C188.624 136.631 189.691 136.925 189.949 136.264C191.714 131.895 193.848 127.708 196.35 123.706C196.718 123.082 195.761 122.531 195.393 123.155Z" fill="#C8CCD1"/>
</g>
</g>
<g id="Group_71">
<g id="Group_72">
<path id="Vector_36" d="M178.324 151.76C179.796 153.743 181.819 155.102 184.247 155.616C184.946 155.762 185.24 154.698 184.541 154.551C182.408 154.11 180.568 152.972 179.281 151.209C178.876 150.658 177.92 151.209 178.324 151.76Z" fill="#C8CCD1"/>
</g>
</g>
<g id="Group_73">
<g id="Group_74">
<path id="Vector_37" d="M177.699 147.243C181.488 150.144 185.498 154.294 190.353 155.285C191.052 155.432 191.347 154.367 190.648 154.22C185.939 153.266 181.966 149.116 178.25 146.289C177.699 145.848 177.147 146.803 177.699 147.243Z" fill="#C8CCD1"/>
</g>
</g>
<g id="Group_75">
<g id="Group_76">
<path id="Vector_38" d="M180.605 144.453C182.886 146.325 185.093 148.235 187.411 150.034C188.404 150.805 189.434 151.54 190.648 152.017C191.788 152.494 193.002 152.715 194.032 153.449C194.621 153.853 195.173 152.898 194.584 152.494C193.775 151.944 192.965 151.687 192.083 151.356C190.574 150.842 189.36 150.144 188.11 149.153C185.829 147.39 183.621 145.518 181.414 143.682C180.826 143.241 180.053 144.012 180.605 144.453Z" fill="#C8CCD1"/>
</g>
</g>
<g id="Group_77">
<g id="Group_78">
<path id="Vector_39" d="M186.638 143.939C188.771 146.142 191.347 147.758 194.29 148.712C194.952 148.933 195.246 147.868 194.584 147.647C191.825 146.729 189.434 145.224 187.41 143.131C186.932 142.653 186.123 143.425 186.638 143.939Z" fill="#C8CCD1"/>
</g>
</g>
<g id="Group_79">
<g id="Group_80">
<path id="Vector_40" d="M213.714 154.624C213.493 154.037 213.162 153.266 213.199 152.641C213.346 151.026 214.449 150.879 215.516 150.695C217.061 150.401 218.68 150.365 220.262 150.365C222.947 150.328 225.67 150.548 228.355 150.658C231.041 150.732 233.689 150.585 236.375 150.365C237.479 150.255 239.428 149.814 240.495 150.181C241.599 150.585 241.893 151.136 241.93 152.164C241.967 152.972 241.967 153.78 242.003 154.624C242.04 155.322 243.144 155.322 243.107 154.624C243.07 153.376 243.438 151.173 242.813 149.997C242.224 148.969 240.863 149.079 239.833 149.079C235.639 149.079 231.556 149.704 227.325 149.52C223.426 149.373 219.489 149.043 215.627 149.63C212.463 150.108 211.653 152.054 212.72 154.991C212.867 155.579 213.934 155.285 213.714 154.624Z" fill="#C8CCD1"/>
</g>
</g>
<g id="Group_81">
<g id="Group_82">
<path id="Vector_41" d="M221.513 148.712C221.807 148.051 222.064 147.39 222.359 146.729C222.69 146.693 223.021 146.656 223.352 146.583C223.793 146.546 224.198 146.582 224.639 146.546C225.596 146.546 226.516 146.509 227.472 146.509C229.495 146.472 231.482 146.472 233.505 146.436C235.382 146.399 237.295 146.399 239.171 146.362C239.649 146.362 240.127 146.362 240.605 146.325C241.194 146.325 241.378 146.179 241.562 146.619C241.783 147.17 241.378 148.712 241.304 149.3C241.231 149.997 242.335 149.997 242.408 149.3C242.482 148.419 243.033 146.583 242.592 145.775C242.224 145.114 241.672 145.224 240.937 145.224C237.405 145.224 233.836 145.334 230.305 145.371C228.649 145.407 226.994 145.407 225.338 145.444C224.088 145.444 222.543 145.297 221.402 145.885C220.078 146.583 219.452 148.382 220.74 149.447C221.292 149.924 222.064 149.153 221.513 148.712Z" fill="#C8CCD1"/>
</g>
</g>
<g id="Group_83">
<g id="Group_84">
<path id="Vector_42" d="M229.091 144.232C228.134 142.947 232.144 143.094 232.402 143.057C233.285 142.984 236.301 142.433 235.713 144.416C235.492 145.114 236.559 145.371 236.779 144.71C237.037 143.829 236.743 143.021 236.044 142.433C234.83 141.442 233.321 141.919 231.887 141.993C230.746 142.029 229.385 141.662 228.465 142.543C227.803 143.131 227.619 144.049 228.134 144.783C228.576 145.334 229.532 144.783 229.091 144.232Z" fill="#C8CCD1"/>
</g>
</g>
<g id="Group_85">
<g id="Group_86">
<path id="Vector_43" d="M172.805 162.115C174.203 164.024 175.859 165.603 177.808 166.925C178.397 167.329 178.949 166.375 178.36 165.971C176.594 164.759 175.012 163.29 173.762 161.528C173.32 160.977 172.364 161.528 172.805 162.115Z" fill="#C8CCD1"/>
</g>
</g>
<g id="Group_87">
<g id="Group_88">
<path id="Vector_44" d="M177.661 166.558C178.875 166.558 180.089 166.558 181.303 166.558C182.002 166.558 183.143 166.742 183.768 166.411C184.246 166.154 184.394 165.567 184.614 165.126C185.203 163.951 185.902 162.849 186.711 161.785C187.153 161.234 186.38 160.463 185.939 161.013C185.534 161.491 185.166 162.005 184.798 162.519C184.357 163.217 184.062 164.208 183.547 164.832C182.517 166.044 179.17 165.493 177.661 165.457C176.962 165.457 176.962 166.558 177.661 166.558Z" fill="#C8CCD1"/>
</g>
</g>
<g id="Group_89">
<g id="Group_90">
<path id="Vector_45" d="M181.745 162.042C182.039 163.143 182.334 164.281 182.665 165.383C182.849 166.081 183.916 165.787 183.732 165.089C183.437 163.988 183.143 162.849 182.812 161.748C182.628 161.05 181.561 161.344 181.745 162.042Z" fill="#C8CCD1"/>
</g>
</g>
<g id="Group_91">
<g id="Group_92">
<path id="Vector_46" d="M226.589 161.858C227.178 163.07 227.803 164.245 228.576 165.346C228.981 165.934 229.496 166.852 230.195 167.182C230.93 167.55 231.96 167.256 232.696 167.182C234.02 167.035 235.345 166.925 236.669 166.778C237.368 166.705 237.368 165.603 236.669 165.677C235.786 165.75 234.903 165.86 234.02 165.934C233.248 166.007 232.108 166.338 231.372 166.191C229.459 165.824 228.282 162.813 227.546 161.27C227.215 160.646 226.258 161.197 226.589 161.858Z" fill="#C8CCD1"/>
</g>
</g>
<g id="Group_93">
<g id="Group_94">
<path id="Vector_47" d="M236.706 160.94C236.265 162.519 236.044 164.135 236.081 165.75C236.118 166.448 237.221 166.448 237.184 165.75C237.148 164.208 237.332 162.703 237.736 161.234C237.957 160.573 236.89 160.279 236.706 160.94Z" fill="#C8CCD1"/>
</g>
</g>
<g id="Group_95">
<g id="Group_96">
<path id="Vector_48" d="M237.184 166.301C238.656 164.906 240.054 163.437 241.415 161.931C241.893 161.417 241.121 160.61 240.642 161.16C239.281 162.666 237.883 164.135 236.412 165.53C235.897 166.007 236.669 166.778 237.184 166.301Z" fill="#C8CCD1"/>
</g>
</g>
<g id="Group_97">
<g id="Group_98">
<path id="Vector_49" d="M0.932983 54.3053C0.932983 64.6603 0.932983 74.9786 0.932983 85.3336C0.932983 86.0313 2.03664 86.0313 2.03664 85.3336C2.03664 74.9786 2.03664 64.6603 2.03664 54.3053C2.03664 53.6076 0.932983 53.6076 0.932983 54.3053Z" fill="#C8CCD1"/>
</g>
</g>
<g id="Group_99">
<g id="Group_100">
<path id="Vector_50" d="M1.81586 86.1782C14.9491 86.1782 28.1192 86.1782 41.2524 86.1782C41.9514 86.1782 41.9514 85.0766 41.2524 85.0766C28.1192 85.0766 14.9491 85.0766 1.81586 85.0766C1.0801 85.0766 1.0801 86.1782 1.81586 86.1782Z" fill="#C8CCD1"/>
</g>
</g>
<g id="Group_101">
<g id="Group_102">
<path id="Vector_51" d="M1.81586 54.8561C14.5813 54.8561 27.3099 54.8561 40.0753 54.8561C40.7742 54.8561 40.7742 53.7545 40.0753 53.7545C27.3099 53.7545 14.5813 53.7545 1.81586 53.7545C1.0801 53.7545 1.0801 54.8561 1.81586 54.8561Z" fill="#C8CCD1"/>
</g>
</g>
<g id="Group_103">
<g id="Group_104">
<path id="Vector_52" d="M40.0757 54.3053C40.0757 64.6603 40.0757 74.9786 40.0757 85.3336C40.0757 86.0313 41.1792 86.0313 41.1792 85.3336C41.1792 74.9786 41.1792 64.6603 41.1792 54.3053C41.1792 53.6076 40.0757 53.6076 40.0757 54.3053Z" fill="#C8CCD1"/>
</g>
</g>
<g id="Group_105">
<g id="Group_106">
<path id="Vector_53" d="M21.4606 53.3873C21.4238 52.9099 21.4974 52.4693 21.7181 52.0287C21.8285 51.7716 22.2699 51.1107 22.5274 51.2943C22.8217 51.4779 22.9321 52.3224 22.9689 52.6162C23.0792 53.167 23.0793 53.7178 23.0057 54.2686C22.9321 54.9662 24.0357 54.9662 24.1093 54.2686C24.1829 53.3138 24.1093 52.3591 23.7782 51.4411C23.5575 50.8536 23.2632 50.1559 22.5642 50.0825C21.0559 49.8989 20.2834 52.2122 20.357 53.3506C20.3938 54.1217 21.4974 54.1217 21.4606 53.3873Z" fill="#C8CCD1"/>
</g>
</g>
<g id="Group_107">
<g id="Group_108">
<path id="Vector_54" d="M3.03015 57.8671C3.03015 66.1291 3.03015 74.3544 3.03015 82.6164C3.03015 83.314 4.1338 83.314 4.1338 82.6164C4.1338 74.3544 4.1338 66.1291 4.1338 57.8671C4.1338 57.1695 3.03015 57.1695 3.03015 57.8671Z" fill="#C8CCD1"/>
</g>
</g>
<g id="Group_109">
<g id="Group_110">
<path id="Vector_55" d="M3.58197 83.1672C15.1334 83.1672 26.6847 83.1672 38.2361 83.1672C38.9351 83.1672 38.9351 82.0656 38.2361 82.0656C26.6847 82.0656 15.1334 82.0656 3.58197 82.0656C2.883 82.0656 2.883 83.1672 3.58197 83.1672Z" fill="#C8CCD1"/>
</g>
</g>
<g id="Group_111">
<g id="Group_112">
<path id="Vector_56" d="M39.1187 82.3226C39.1187 74.0606 39.1187 65.8353 39.1187 57.5733C39.1187 56.8757 38.0151 56.8757 38.0151 57.5733C38.0151 65.8353 38.0151 74.0606 38.0151 82.3226C38.0151 83.057 39.1187 83.057 39.1187 82.3226Z" fill="#C8CCD1"/>
</g>
</g>
<g id="Group_113">
<g id="Group_114">
<path id="Vector_57" d="M3.87616 58.7117C15.0229 58.7117 26.1696 58.7117 37.3531 58.7117C38.052 58.7117 38.052 57.6101 37.3531 57.6101C26.2064 57.6101 15.0597 57.6101 3.87616 57.6101C3.17719 57.6101 3.17719 58.7117 3.87616 58.7117Z" fill="#C8CCD1"/>
</g>
</g>
<g id="Group_115">
<g id="Group_116">
<path id="Vector_58" d="M4.05991 77.3287C8.36408 76.0435 12.7418 74.9052 17.0092 76.888C20.0626 78.3201 22.7113 80.4866 26.1326 81.1108C26.8316 81.221 27.1259 80.1928 26.4269 80.046C22.5274 79.3116 19.5844 76.4841 15.8688 75.2356C11.8589 73.9137 7.6651 75.0888 3.76558 76.2638C3.1034 76.4841 3.39772 77.549 4.05991 77.3287Z" fill="#C8CCD1"/>
</g>
</g>
<g id="Group_117">
<g id="Group_118">
<path id="Vector_59" d="M18.4072 76.7045C23.6679 74.8685 29.1492 74.2075 34.6674 74.7583C35.3664 74.8318 35.3664 73.7302 34.6674 73.6567C29.0389 73.1059 23.4471 73.7669 18.1129 75.6396C17.4507 75.8966 17.745 76.9615 18.4072 76.7045Z" fill="#C8CCD1"/>
</g>
</g>
<g id="Group_119">
<g id="Group_120">
<path id="Vector_60" d="M19.5475 68.1854C19.1428 67.4878 19.2531 66.4596 19.9521 65.9822C20.5775 65.5416 21.5708 65.7252 22.0122 66.3127C22.4536 66.9369 22.1961 67.9284 21.4972 68.2956C20.6879 68.6995 19.7682 67.9284 19.7682 67.1205C19.7682 66.4229 18.6646 66.4229 18.6646 67.1205C18.6278 68.5893 20.136 69.8378 21.6075 69.4339C22.9687 69.0667 23.7044 67.3409 23.1158 66.0924C22.5272 64.7705 20.7614 64.2931 19.5107 64.9541C18.1495 65.6885 17.8185 67.4877 18.5542 68.7729C18.9589 69.3605 19.8785 68.8097 19.5475 68.1854Z" fill="#C8CCD1"/>
</g>
</g>
<g id="Group_121">
<g id="Group_122">
<path id="Vector_61" d="M198.741 59.6297C200.065 61.3922 200.323 63.779 201.942 65.3212C203.45 66.79 205.252 66.5697 207.092 65.9088C207.754 65.6884 207.46 64.6236 206.798 64.8439C205.804 65.1744 204.664 65.5416 203.634 65.1376C202.751 64.7704 202.162 63.9626 201.721 63.1181C201.022 61.7594 200.617 60.2906 199.697 59.0421C199.256 58.4913 198.3 59.0421 198.741 59.6297Z" fill="#C8CCD1"/>
</g>
</g>
<g id="Group_123">
<g id="Group_124">
<path id="Vector_62" d="M206.945 65.4681C208.71 63.9626 210.255 62.2368 211.58 60.3273C211.984 59.7398 211.028 59.189 210.623 59.7765C209.373 61.6125 207.864 63.2649 206.172 64.697C205.62 65.1377 206.393 65.9455 206.945 65.4681Z" fill="#C8CCD1"/>
</g>
</g>
<g id="Group_125">
<g id="Group_126">
<path id="Vector_63" d="M204.259 59.2258C204.774 60.4375 204.995 61.686 204.958 62.9712C204.921 63.6689 206.025 63.6689 206.062 62.9712C206.099 61.4657 205.804 60.0336 205.216 58.675C204.958 58.014 204.002 58.5648 204.259 59.2258Z" fill="#C8CCD1"/>
</g>
</g>
<g id="Group_127">
<g id="Group_128">
<path id="Vector_64" d="M174.792 202.874C174.792 207.758 174.792 212.678 174.792 217.562C174.792 218.26 175.896 218.26 175.896 217.562C175.896 212.678 175.896 207.758 175.896 202.874C175.896 202.176 174.792 202.176 174.792 202.874Z" fill="#C8CCD1"/>
</g>
</g>
<g id="Group_129">
<g id="Group_130">
<path id="Vector_65" d="M161.365 219.582C174.351 219.582 187.374 219.582 200.36 219.582C201.059 219.582 201.059 218.48 200.36 218.48C187.374 218.48 174.351 218.48 161.365 218.48C160.666 218.48 160.666 219.582 161.365 219.582Z" fill="#C8CCD1"/>
</g>
</g>
<g id="Group_131">
<g id="Group_132">
<path id="Vector_66" d="M182.517 220.5C182.517 223.547 182.517 226.632 182.517 229.68C182.517 230.377 183.621 230.377 183.621 229.68C183.621 226.632 183.621 223.547 183.621 220.5C183.621 219.802 182.517 219.802 182.517 220.5Z" fill="#C8CCD1"/>
</g>
</g>
<g id="Group_133">
<g id="Group_134">
<path id="Vector_67" d="M160.997 231.332C172.511 231.332 184.063 231.332 195.577 231.332C196.276 231.332 196.276 230.231 195.577 230.231C184.063 230.231 172.511 230.231 160.997 230.231C160.298 230.231 160.298 231.332 160.997 231.332Z" fill="#C8CCD1"/>
</g>
</g>
<g id="Group_135">
<g id="Group_136">
<path id="Vector_68" d="M169.642 232.25C169.642 234.563 169.642 236.914 169.642 239.227C169.642 239.925 170.745 239.925 170.745 239.227C170.745 236.914 170.745 234.563 170.745 232.25C170.745 231.552 169.642 231.552 169.642 232.25Z" fill="#C8CCD1"/>
</g>
</g>
<g id="Group_137">
<g id="Group_138">
<path id="Vector_69" d="M173.321 54.4522C173.321 52.9099 173.026 50.9638 173.321 49.4583C173.725 47.3285 176.705 47.7324 178.434 47.6223C179.133 47.5856 179.133 46.484 178.434 46.5207C177.036 46.5941 175.565 46.5941 174.167 46.8144C173.541 46.9246 172.989 47.1082 172.622 47.659C172.18 48.3199 172.254 49.2379 172.254 50.0091C172.254 51.4779 172.254 52.9834 172.254 54.4522C172.217 55.1866 173.321 55.1866 173.321 54.4522Z" fill="#C8CCD1"/>
</g>
</g>
<g id="Group_139">
<g id="Group_140">
<path id="Vector_70" d="M166.846 13.436C170.194 12.518 173.541 12.7383 176.742 14.0235C177.404 14.2806 177.698 13.2157 177.036 12.9586C173.652 11.6 170.083 11.4164 166.552 12.3711C165.853 12.5914 166.147 13.6563 166.846 13.436Z" fill="#C8CCD1"/>
</g>
</g>
<g id="Group_141">
<g id="Group_142">
<path id="Vector_71" d="M165.485 10.1312C168.428 8.11162 171.96 7.74442 175.271 9.06634C175.933 9.32338 176.227 8.2585 175.565 8.00146C172.033 6.56938 168.06 7.01002 164.933 9.1765C164.345 9.58042 164.896 10.5351 165.485 10.1312Z" fill="#C8CCD1"/>
</g>
</g>
<g id="Group_143">
<g id="Group_144">
<path id="Vector_72" d="M153.529 29.3725C152.351 30.1803 150.107 31.2452 149.776 32.7874C149.629 33.5953 149.997 34.3297 150.291 35.0641C150.806 36.3493 151.321 37.6345 151.873 38.9196C154.007 43.9503 156.398 48.8708 159.047 53.6443C159.378 54.2686 160.334 53.7178 160.003 53.0935C157.98 49.4216 156.104 45.6761 154.375 41.8572C153.455 39.8376 152.572 37.7813 151.763 35.725C151.285 34.5133 150.622 33.4484 151.505 32.1999C152.02 31.4655 153.345 30.8413 154.117 30.3272C154.669 29.9233 154.117 28.9685 153.529 29.3725Z" fill="#C8CCD1"/>
</g>
</g>
</g>
</svg>
