<svg width="29" height="28" viewBox="0 0 29 28" fill="none" xmlns="http://www.w3.org/2000/svg">
<g id="check(1) 1">
<g id="Group">
<path id="Vector" d="M14.5006 22.1078C11.444 22.1078 8.95898 19.6227 8.95898 16.5661C8.95898 13.5094 11.444 11.0244 14.5006 11.0244C17.5573 11.0244 20.0423 13.5094 20.0423 16.5661C20.0423 19.6227 17.5573 22.1078 14.5006 22.1078ZM14.5006 12.7744C12.4123 12.7744 10.709 14.4777 10.709 16.5661C10.709 18.6544 12.4123 20.3578 14.5006 20.3578C16.589 20.3578 18.2923 18.6544 18.2923 16.5661C18.2923 14.4777 16.589 12.7744 14.5006 12.7744Z" fill="white"/>
<path id="Vector_2" d="M13.8473 18.468C13.474 18.468 13.1006 18.328 12.8206 18.048L12.0623 17.2897C11.724 16.9513 11.724 16.3913 12.0623 16.053C12.4006 15.7147 12.9606 15.7147 13.299 16.053L13.859 16.613L15.7373 14.8863C16.0873 14.5597 16.6473 14.583 16.974 14.933C17.3006 15.283 17.2773 15.843 16.9273 16.1697L14.8506 18.083C14.559 18.3397 14.209 18.468 13.8473 18.468Z" fill="white"/>
<path id="Vector_3" d="M19.1672 26.5417H9.83392C4.44392 26.5417 3.44059 24.0334 3.18392 21.5951L2.30892 12.2501C2.18059 11.0251 2.14559 9.21672 3.35892 7.86339C4.40892 6.69672 6.14726 6.13672 8.66726 6.13672H20.3339C22.8656 6.13672 24.6039 6.70838 25.6422 7.86339C26.8556 9.21672 26.8206 11.0251 26.6922 12.2617L25.8172 21.5834C25.5606 24.0334 24.5572 26.5417 19.1672 26.5417ZM8.66726 7.87505C6.69559 7.87505 5.34226 8.26005 4.65392 9.03005C4.08226 9.66005 3.89559 10.6284 4.04726 12.0751L4.92226 21.4201C5.12059 23.2634 5.62226 24.7917 9.83392 24.7917H19.1672C23.3672 24.7917 23.8806 23.2634 24.0789 21.4084L24.9539 12.0867C25.1056 10.6284 24.9189 9.66005 24.3472 9.03005C23.6589 8.26005 22.3056 7.87505 20.3339 7.87505H8.66726Z" fill="white"/>
<path id="Vector_4" d="M19.1673 7.87467C18.689 7.87467 18.2923 7.47801 18.2923 6.99967V6.06634C18.2923 3.98967 18.2923 3.20801 15.434 3.20801H13.5673C10.709 3.20801 10.709 3.98967 10.709 6.06634V6.99967C10.709 7.47801 10.3123 7.87467 9.83398 7.87467C9.35565 7.87467 8.95898 7.47801 8.95898 6.99967V6.06634C8.95898 4.01301 8.95898 1.45801 13.5673 1.45801H15.434C20.0423 1.45801 20.0423 4.01301 20.0423 6.06634V6.99967C20.0423 7.47801 19.6456 7.87467 19.1673 7.87467Z" fill="white"/>
<path id="Vector_5" d="M19.1789 16.788C18.7822 16.788 18.4322 16.5197 18.3272 16.123C18.2106 15.6564 18.4906 15.178 18.9572 15.0614C21.2322 14.4897 23.3439 13.498 25.2339 12.1214C25.6189 11.8414 26.1672 11.923 26.4589 12.3197C26.7389 12.7047 26.6572 13.253 26.2606 13.5447C24.1839 15.0497 21.8739 16.1347 19.3772 16.7647C19.3189 16.7764 19.2489 16.788 19.1789 16.788Z" fill="white"/>
<path id="Vector_6" d="M9.83418 16.8233C9.76418 16.8233 9.69418 16.8117 9.62418 16.8C7.27918 16.2283 5.07418 15.2367 3.05584 13.86C2.65918 13.5917 2.55418 13.0433 2.82251 12.6467C3.09084 12.25 3.63918 12.145 4.03584 12.4133C5.87918 13.6733 7.88584 14.5717 10.0325 15.0967C10.4992 15.2133 10.7908 15.68 10.6742 16.1583C10.5925 16.555 10.2308 16.8233 9.83418 16.8233Z" fill="white"/>
</g>
</g>
</svg>
