<svg width="172" height="167" viewBox="0 0 172 167" fill="none" xmlns="http://www.w3.org/2000/svg">
<g id="color 1">
<g id="Group">
<g id="Group_2">
<path id="Vector" d="M101.047 146.257C100.128 144.347 97.5156 144.201 96.1177 145.633C94.6094 147.175 93.9104 150.149 94.0575 152.242C94.3886 156.465 98.5089 158.448 99.6125 162.23C100.128 163.956 102.776 164.507 103.659 162.744C105.131 159.843 107.191 157.346 109.03 154.703C110.649 152.352 113.114 148.717 112.231 145.706C111.863 144.421 110.722 143.319 109.324 143.172C107.632 142.989 106.455 144.017 105.462 145.265C104.468 146.551 103.586 147.873 102.85 149.305C102.188 150.553 101.673 152.022 100.385 152.72C101.452 153.16 102.556 153.601 103.622 154.042C103.144 152.463 102.666 150.884 102.224 149.341C101.01 150.039 99.7596 150.773 98.5456 151.471C100.201 153.344 103.034 153.601 105.02 152.022C105.94 151.288 106.455 150.296 107.08 149.341C107.375 148.901 107.632 148.497 108.074 148.203C108.368 147.983 108.736 147.836 109.104 147.726C109.839 147.689 109.803 147.616 109.03 147.505C108.662 146.881 108.294 146.22 107.927 145.596C107.927 145.669 107.927 145.78 107.927 145.853C108.478 145.155 108.993 144.421 109.545 143.723C109.472 143.76 109.398 143.76 109.324 143.797C106.639 144.641 107.779 148.901 110.502 148.056C110.575 148.019 110.649 148.019 110.722 147.983C111.716 147.689 112.267 146.844 112.341 145.853C112.341 145.78 112.341 145.669 112.341 145.596C112.378 144.825 111.863 144.09 111.237 143.687C109.398 142.511 106.676 143.65 105.167 144.862C104.321 145.559 103.733 146.367 103.144 147.285C102.776 147.873 102.372 149.121 101.673 148.313C100.201 146.661 97.3684 148.423 97.9938 150.443C98.4721 152.022 98.9503 153.601 99.3918 155.143C99.7964 156.539 101.378 157.163 102.629 156.465C104.505 155.474 105.535 153.748 106.455 151.912C107.007 150.847 107.559 149.819 108.258 148.864C108.368 148.68 109.361 147.652 109.324 147.469C108.368 146.661 107.89 146.698 107.816 147.579C107.743 147.873 107.632 148.13 107.522 148.387C105.682 152.83 102.004 156.208 99.8332 160.468C101.194 160.651 102.519 160.835 103.88 160.982C103.181 158.595 101.599 156.869 100.091 154.96C99.4653 154.152 98.7664 153.27 98.5456 152.279C98.3985 151.581 98.4721 150.957 98.656 150.296C98.7664 149.855 98.9135 149.452 99.0975 149.048C99.7229 148.166 99.0975 147.946 97.2581 148.423C98.4721 151.031 102.261 148.791 101.047 146.257Z" fill="#0A65CC"/>
</g>
</g>
<g id="Group_3">
<g id="Group_4">
<path id="Vector_2" d="M103.439 158.301C106.676 154.409 109.509 150.259 111.863 145.816C113.187 143.319 109.361 141.079 108.037 143.576C105.866 147.726 103.328 151.618 100.312 155.18C98.5089 157.346 101.599 160.468 103.439 158.301Z" fill="#0A65CC"/>
</g>
</g>
<g id="Group_5">
<g id="Group_6">
<path id="Vector_3" d="M112.157 95.9874C111.568 99.843 111.715 103.625 112.746 107.407C113.297 109.464 116.498 108.582 115.946 106.526C115.1 103.368 114.842 100.1 115.357 96.8686C115.652 94.7756 112.451 93.8943 112.157 95.9874Z" fill="#6CA3E0"/>
</g>
</g>
<g id="Group_7">
<g id="Group_8">
<path id="Vector_4" d="M113.408 97.6765C117.455 99.4023 120.692 96.0241 120.839 92.0583C120.839 91.6911 120.619 90.6997 120.766 90.3692C120.692 90.3692 120.619 90.3692 120.582 90.3692C120.913 90.4794 121.17 90.663 121.317 90.9934C121.906 91.7278 122.2 92.6826 122.826 93.417C124.113 94.9225 125.879 95.1428 127.755 95.253C128.675 95.2897 129.779 95.1795 130.33 96.0608C130.882 96.9053 130.588 98.3374 130.514 99.2921C130.441 100.614 130.331 101.973 130.22 103.295C130.183 103.625 129.852 104.874 130.33 104.396C130.036 104.727 128.822 104.8 128.418 104.91C125.99 105.461 123.488 105.681 121.023 105.535C119.736 105.461 117.786 105.608 117.05 104.47C116.388 103.405 116.351 101.789 116.535 100.577C115.542 100.724 114.512 100.834 113.518 100.981C114.401 102.927 115.247 104.874 116.13 106.856C116.719 108.142 118.853 107.774 119.147 106.453C120.03 102.487 118.816 98.3374 120.067 94.4451C119.147 94.7021 118.227 94.9225 117.308 95.1795C118.374 96.4647 118.117 99.2187 118.374 100.798C118.669 102.634 119.184 104.323 120.03 105.938C120.802 107.334 123.23 106.746 123.12 105.094C122.826 100.688 122.531 96.2444 122.274 91.838C121.207 91.9849 120.103 92.1318 119.037 92.2786C120.582 96.428 120.802 100.761 119.588 105.02C120.398 104.69 121.207 104.359 122.016 104.029C119.956 102.45 118.411 100.394 117.344 98.0437C116.645 96.5381 114.181 97.3093 114.254 98.8882C114.328 100.357 114.365 101.826 114.438 103.295C115.542 103.295 116.645 103.295 117.749 103.295C117.675 101.459 117.749 99.6593 118.117 97.8601C118.264 97.2358 118.411 96.5749 118.595 95.9506C118.706 95.5467 118.853 95.1061 119 94.7022C119.478 94.1146 119.405 93.8943 118.779 94.0412C120.545 96.5381 120.766 100.284 120.471 103.184C121.501 102.891 122.531 102.634 123.562 102.34C122.715 100.614 122.164 98.7781 121.943 96.8686C121.833 95.8772 121.796 94.8857 121.869 93.8943C121.869 93.7474 122.053 92.7193 121.98 92.6458C121.722 92.6826 121.465 92.6825 121.207 92.7193C121.354 93.013 121.501 93.2701 121.649 93.5638C123.341 97.0155 123.856 100.908 123.451 104.727C124.481 104.433 125.511 104.176 126.541 103.882C125.879 102.45 125.364 100.945 125.07 99.4023C124.959 98.7413 124.886 98.0804 124.959 97.4194C124.996 97.0522 125.07 96.685 125.18 96.3178C125.585 95.8772 125.622 95.6936 125.291 95.8038C124.849 95.7303 124.444 95.6936 124.003 95.6202C124.592 95.9139 124.959 98.8148 125.07 99.4757C125.291 101.055 125.254 102.707 125.033 104.286C126.1 104.286 127.167 104.286 128.234 104.286C127.829 103.111 127.535 101.899 127.351 100.688C127.167 99.5125 127.277 98.3007 126.909 97.1624C127.719 99.6961 127.571 102.377 126.836 104.874C127.829 104.727 128.859 104.617 129.852 104.47C129.411 103.515 129.043 102.487 128.859 101.422C128.749 100.908 128.712 100.394 128.675 99.8797C128.675 99.6593 128.638 99.439 128.675 99.2187C128.785 98.7046 128.528 98.6679 127.939 99.0718C127.608 98.8148 127.277 98.5577 126.946 98.3007C129.043 101.899 124.849 105.902 121.281 105.388C121.685 105.902 122.09 106.453 122.495 106.967C122.458 106.306 122.237 105.351 122.458 104.727C122.2 105.057 121.943 105.388 121.685 105.718C121.06 106.122 124.408 105.645 123.01 105.498C121.097 105.314 120.802 108.252 122.568 108.729C124.334 109.207 125.953 110.161 127.829 109.941C129.448 109.757 130.662 108.803 131.324 107.371C132.023 105.865 132.17 104.102 131.949 102.45C131.839 101.532 131.618 100.687 131.25 99.8797C131.103 99.5125 130.919 99.1453 130.735 98.7781C130.625 98.5577 130.478 98.3374 130.33 98.1171C130.183 97.7866 130.11 97.8601 130.183 98.3374C131.213 98.6312 132.243 98.8882 133.274 99.182C133.31 98.4843 133.384 97.8233 133.421 97.1257C132.354 97.2725 131.25 97.4194 130.183 97.5663C130.809 99.4023 130.698 101.091 129.963 102.891C129.153 104.874 132.354 105.718 133.163 103.772C134.083 101.459 134.156 99.0351 133.384 96.685C132.795 94.8858 130.257 95.2529 130.147 97.1257C130.11 97.8233 130.036 98.4843 129.999 99.182C129.889 100.798 132.391 101.495 133.09 100.027C133.899 98.264 133.678 95.9873 131.802 94.9959C130.183 94.1514 128.013 94.8858 127.24 96.5382C126.173 98.8148 128.565 100.834 128.785 103.038C128.896 104.066 128.896 106.122 127.755 106.636C126.652 107.113 124.555 105.828 123.525 105.535C123.378 106.599 123.23 107.701 123.083 108.766C126.431 109.06 126.505 104.653 124.187 103.221C123.047 102.523 121.501 101.973 120.287 102.707C118.779 103.625 119.221 105.461 119.257 106.93C119.294 107.591 119.736 108.435 120.471 108.509C126.357 109.353 131.728 104.653 130.588 98.521C130.367 97.3093 129.889 95.9506 128.528 95.6936C127.387 95.4733 126.247 96.1342 125.769 97.1624C124.555 99.7695 125.99 103.625 127.093 106.012C127.719 107.371 129.742 106.893 130.11 105.608C130.846 103.148 131.066 100.614 130.625 98.0804C130.294 96.1709 129.705 93.674 127.314 93.6006C121.98 93.4904 124.187 102.23 125.107 104.984C125.585 106.379 128.013 106.71 128.307 104.984C128.749 102.156 128.712 99.3289 127.976 96.5382C127.535 94.8858 126.652 91.6544 124.261 92.499C122.348 93.1966 121.759 95.9506 121.759 97.7499C121.759 100.394 122.715 103.001 123.819 105.314C124.592 106.967 126.762 105.938 126.909 104.47C127.24 101.385 126.983 98.264 126.1 95.2897C125.475 93.1966 124.334 88.9738 121.538 89.084C118.816 89.1574 118.669 92.6458 118.669 94.6287C118.669 97.8233 119.478 100.908 120.876 103.809C121.649 105.424 123.819 104.433 123.966 102.964C124.261 100.357 124.003 97.7132 123.194 95.2162C122.605 93.3802 121.649 90.7364 119.441 90.4794C117.013 90.2223 116.167 93.013 115.615 94.8123C114.806 97.4561 114.549 100.247 114.659 103.038C114.769 105.167 118.043 105.167 117.97 103.038C117.896 101.569 117.859 100.1 117.786 98.6312C116.756 98.9249 115.726 99.182 114.696 99.4757C116.02 102.377 118.043 104.727 120.545 106.636C121.428 107.297 122.715 106.563 122.973 105.645C124.371 100.871 124.187 95.8037 122.421 91.1403C121.796 89.5246 119.037 89.5981 119.184 91.581C119.478 95.9874 119.772 100.43 120.03 104.837C121.06 104.543 122.09 104.286 123.12 103.992C121.207 100.43 122.495 95.6936 119.883 92.5357C119.037 91.5075 117.455 92.1685 117.124 93.2701C115.836 97.1991 117.087 101.312 116.204 105.277C117.197 105.131 118.227 105.02 119.221 104.874C118.338 102.927 117.492 100.981 116.609 98.9984C116.057 97.7499 113.813 98.0437 113.592 99.4023C113.187 101.973 113.371 105.571 115.615 107.334C116.645 108.142 118.007 108.215 119.294 108.362C121.023 108.546 122.789 108.619 124.555 108.509C126.247 108.399 127.902 108.142 129.558 107.774C130.662 107.517 132.133 107.334 132.906 106.453C133.899 105.388 133.715 103.662 133.825 102.303C133.936 100.688 134.12 99.1085 134.156 97.4929C134.193 94.849 133.126 92.5357 130.404 91.8747C129.3 91.6177 128.16 91.7646 127.02 91.581C125.254 91.3239 125.07 89.8184 124.113 88.5699C122.899 86.9542 120.287 85.9261 118.632 87.505C117.565 88.5332 117.786 89.8551 117.823 91.177C117.859 92.3521 117.271 95.3264 115.395 94.5186C113.151 94.0045 111.458 96.8686 113.408 97.6765Z" fill="#6CA3E0"/>
</g>
</g>
<g id="Group_9">
<g id="Group_10">
<path id="Vector_5" d="M15.9203 115.963C18.4954 118.313 20.9234 120.847 23.0203 123.637C24.4183 125.473 25.853 129.145 28.3546 129.659C29.8261 129.953 31.0033 129.182 32.1069 128.301C33.6152 127.089 35.0867 125.841 36.595 124.592C38.1033 123.344 39.5749 122.132 41.0832 120.883C42.15 120.002 43.364 119.194 43.4376 117.689C43.5112 116.257 42.5915 115.192 41.7453 114.127C40.5681 112.621 39.3541 111.116 38.1769 109.61C36.9997 108.105 35.7857 106.599 34.6085 105.094C33.7256 103.992 32.9163 102.523 31.4447 102.193C30.1204 101.899 28.9064 102.67 27.8027 103.258C26.3312 104.029 24.8965 104.91 23.5354 105.828C20.8498 107.664 18.3483 109.757 16.0674 112.107C15.3685 112.842 15.442 114.2 16.3985 114.714C18.7897 115.926 21.0706 117.358 23.1307 119.121C24.0504 119.892 24.9333 120.737 25.7794 121.618C26.1841 122.058 26.5887 122.499 26.9934 122.976C27.2509 123.27 27.5084 123.601 27.766 123.894C28.097 124.776 28.5753 124.739 29.1639 123.711C29.3111 124.702 29.4214 125.73 29.5686 126.722C33.3945 124.409 36.8893 121.544 39.9059 118.24C41.1567 116.844 39.5749 114.714 37.8826 115.632C35.3075 117.028 32.6587 118.166 29.8997 119.047C30.5251 119.855 31.1504 120.663 31.7758 121.471C33.3209 119.011 35.2339 116.881 37.4779 115.008C36.595 114.347 35.7489 113.686 34.866 112.989C32.8427 116 30.3043 118.644 27.3981 120.81C28.2074 121.434 29.0167 122.058 29.8261 122.683C30.7826 119.231 32.7323 116.183 35.6386 114.017C34.866 113.246 34.1303 112.511 33.3577 111.74C31.7023 115.008 29.3846 117.799 26.4048 119.929C26.9566 119.929 27.5084 119.929 28.0603 119.929C28.1706 120.039 28.2442 120.186 28.3546 120.296C28.4281 120.002 28.5017 119.708 28.5753 119.451C28.6857 119.084 28.796 118.717 28.9432 118.313C29.2743 117.322 29.7157 116.404 30.194 115.486C31.1137 113.76 32.2541 112.254 33.6152 110.859C32.7323 110.198 31.8862 109.537 31.0033 108.839C29.0535 112.842 26.368 116.33 22.9835 119.268C23.94 119.672 24.8597 120.039 25.8162 120.443C26.2209 116.11 28.0971 112.144 31.1504 109.023C30.2675 108.362 29.4214 107.701 28.5385 107.003C27.0302 109.941 24.8229 112.254 21.9535 113.907C22.7996 114.384 23.6089 114.861 24.455 115.339C24.4183 114.017 24.6022 112.732 25.2276 111.557C25.4851 111.043 25.8162 110.565 26.1841 110.161C26.7727 109.464 27.8763 109.28 26.8463 108.619C26.368 108.031 26.1105 108.068 26.0737 108.803C25.8898 109.17 25.7426 109.537 25.5587 109.904C25.2644 110.455 24.9701 110.969 24.6758 111.483C24.3447 111.997 24.0136 112.511 23.6457 112.989C23.3514 113.356 23.0939 113.723 22.7628 114.09C22.2478 114.384 22.211 114.604 22.6524 114.714C22.91 115.045 23.1675 115.375 23.425 115.706C23.0571 114.531 24.2711 112.328 24.8229 111.336C25.154 110.785 27.067 107.628 27.9131 107.811C28.3178 107.885 28.8696 109.941 29.0167 110.308C29.311 111.116 29.5686 111.961 29.7525 112.805C29.9364 113.65 30.1572 114.531 30.1572 115.375C30.1572 116.367 30.1572 116.404 29.3478 115.706C27.0302 113.723 26.7727 108.692 30.194 107.554C31.923 106.967 32.438 109.17 32.8427 110.418C33.4313 112.218 33.9831 114.054 34.5717 115.89C35.4914 115.339 36.4111 114.825 37.3308 114.274C35.2707 112.254 34.167 109.684 34.0935 106.783C33.3945 107.297 32.6955 107.848 31.9966 108.362C35.8593 109.831 36.4847 114.678 36.9997 118.203C37.294 120.296 40.4946 119.415 40.2003 117.322C39.4645 112.328 38.1033 107.113 32.8795 105.167C31.8862 104.8 30.7458 105.755 30.7826 106.746C30.8561 110.492 32.3277 113.907 34.9764 116.55C36.1168 117.689 38.2505 116.55 37.7355 114.935C37.0733 112.842 36.4847 110.749 35.7489 108.692C35.2339 107.224 34.5717 105.681 33.2106 104.8C30.2675 102.854 26.8095 105.057 25.3012 107.738C23.5721 110.859 24.0136 114.751 26.368 117.395C28.3178 119.562 32.1069 120.737 33.1738 117.101C34.1303 113.87 32.4748 109.096 30.8561 106.306C28.6489 102.56 25.0069 105.388 23.1307 107.811C22.1374 109.096 21.3649 110.492 20.8131 111.997C20.298 113.393 19.4519 115.669 20.482 117.028C22.91 120.186 26.4048 114.825 27.4717 113.062C28.3914 111.593 29.7157 109.574 29.495 107.738C29.2743 106.012 27.6556 105.204 26.1105 105.865C22.726 107.334 20.997 111.85 21.1441 115.265C21.1809 116.514 22.5053 117.322 23.6457 116.697C26.9566 114.788 29.6421 111.997 31.408 108.619C32.2541 107.003 30.1572 105.241 28.796 106.599C25.1172 110.345 22.9835 115.118 22.5053 120.333C22.3581 121.875 24.3447 122.352 25.338 121.508C28.9064 118.423 31.8126 114.641 33.8727 110.418C34.6453 108.803 32.6587 107.003 31.2608 108.399C29.1271 110.602 27.4349 113.136 26.2577 115.963C25.4851 117.836 23.8664 121.398 26.368 122.683C26.8831 122.94 27.5452 123.013 28.0235 122.683C31.4815 120.222 34.2774 117.101 36.1904 113.319C36.8526 111.997 35.381 109.978 33.9095 111.043C30.3043 113.76 27.766 117.358 26.5888 121.691C26.2209 122.976 27.8027 124.445 29.0167 123.564C32.438 121.067 35.3075 118.093 37.6987 114.568C38.8023 112.915 36.4479 111.446 35.0867 112.548C32.622 114.568 30.5618 116.954 28.8696 119.672C28.097 120.883 29.3846 122.536 30.7458 122.095C33.7992 121.14 36.7422 119.892 39.5381 118.35C38.8759 117.468 38.2137 116.624 37.5147 115.743C34.6821 118.864 31.4447 121.544 27.8395 123.711C26.5152 124.519 26.9566 126.208 28.2442 126.722C29.7893 127.346 31.4447 126.098 31.5183 124.519C31.6287 122.609 29.6421 120.81 28.4649 119.562C25.4851 116.33 21.9167 113.686 18.0172 111.74C18.1275 112.621 18.2379 113.466 18.3483 114.347C20.0773 112.585 21.9167 110.969 23.8664 109.5C25.6323 108.178 27.8395 106.416 29.9364 105.718C30.5618 105.498 30.525 105.388 31.0401 105.902C31.5551 106.416 31.9598 107.04 32.3644 107.591C33.1738 108.619 34.0199 109.684 34.8292 110.712C35.7121 111.85 36.6318 112.989 37.5147 114.127C37.993 114.751 39.9427 116.624 39.7956 117.322C39.6484 118.129 37.6251 119.304 36.9629 119.855C35.9329 120.7 34.9028 121.544 33.8727 122.389C32.8427 123.234 31.8126 124.078 30.7826 124.923C30.3411 125.29 29.3846 126.355 28.6121 125.951C28.3178 125.804 27.8027 124.702 27.6188 124.445C24.9333 120.406 21.7327 116.771 18.1643 113.503C16.6928 112.218 14.3384 114.531 15.9203 115.963Z" fill="#6CA3E0"/>
</g>
</g>
<g id="Group_11">
<g id="Group_12">
<path id="Vector_6" d="M17.686 113.025C19.0104 115.596 27.3244 129.917 30.8561 125.033C32.1069 123.307 29.2374 121.655 27.9866 123.38C27.913 123.454 27.8763 123.564 27.8027 123.637C28.2809 123.38 28.7592 123.087 29.2374 122.83C28.612 122.903 27.1037 120.81 26.699 120.333C25.8897 119.415 25.0804 118.497 24.3446 117.505C22.9099 115.559 21.6591 113.503 20.5555 111.373C19.599 109.464 16.7296 111.153 17.686 113.025Z" fill="#6CA3E0"/>
</g>
</g>
<g id="Group_13">
<g id="Group_14">
<path id="Vector_7" d="M83.4992 67.6763C79.5629 64.8121 78.0546 58.9369 80.5194 54.6407C81.7334 52.511 83.9406 50.7851 86.5158 51.0789C89.1645 51.3726 90.4521 53.2821 90.636 55.779C90.7464 57.1744 90.5992 58.6065 90.5624 60.0018C90.4889 61.3237 90.636 62.866 90.2681 64.1512C89.9002 65.4364 88.5759 66.1341 88.0609 67.4192C87.6194 68.5208 88.0976 69.4756 86.8101 69.8428C86.4422 69.9529 85.9272 69.9162 85.5961 70.0264C85.0075 69.9529 85.0075 70.0631 85.5961 70.3201C85.4489 69.8428 85.3386 69.4021 85.1914 68.9248C84.7132 67.3091 84.2349 65.6567 83.7567 64.041C82.9474 61.3237 81.2551 57.3213 83.3888 54.7876C82.5059 54.8978 81.623 55.0079 80.7033 55.1181C81.9909 56.0728 81.5126 59.9651 81.5862 61.287C81.6966 64.041 81.8069 66.795 81.9173 69.549C82.0277 72.4499 86.0375 72.3397 86.3318 69.549C86.6261 66.6481 86.2215 63.784 86.1111 60.8464C86.0375 59.5979 86.0375 58.3127 86.2215 57.0642C86.295 56.44 86.4422 55.8525 86.6261 55.2649C86.7365 54.861 86.9204 54.4571 87.1044 54.0899C87.509 53.4657 87.509 53.3922 87.1412 53.8696C86.5893 53.943 86.0007 54.0165 85.4489 54.0899C85.3386 54.0532 85.8536 55.4118 85.9272 55.7056C86.0743 56.2564 86.1479 56.8439 86.2215 57.3947C86.3686 58.9369 86.3686 60.5159 86.295 62.0581C86.2583 62.7558 86.1847 63.4535 86.0743 64.1879C86.0007 64.6285 85.9272 65.0692 85.8536 65.5098C85.4857 66.3911 86.1111 66.6114 87.7298 66.0606C87.8769 65.7669 87.4723 64.5918 87.4355 64.2613C87.3619 63.4902 87.3251 62.6824 87.3619 61.9113C87.3987 60.4057 87.5826 58.9737 87.9505 57.5049C88.0609 57.0642 88.1712 56.6603 88.3184 56.2197C88.8702 55.265 88.2816 54.9345 86.5526 55.2649C86.4054 55.522 86.994 56.9173 87.0676 57.1744C87.3987 58.7166 87.4722 60.2956 87.3251 61.8745C87.2515 62.6089 87.178 64.9957 86.3318 65.1793C83.5727 65.8403 84.75 70.0998 87.509 69.4388C90.4153 68.7412 91.2246 65.8036 91.5925 63.1965C91.9971 60.112 91.85 56.6236 90.6728 53.7227C89.5324 50.932 86.1847 50.8953 84.7132 53.4657C83.2417 56.0361 82.9106 59.6713 82.9474 62.5722C82.9841 64.9223 83.0209 68.9615 85.8536 69.806C88.9805 70.724 90.0842 67.3458 90.4153 64.9957C90.8567 61.9113 90.9671 58.7533 90.4521 55.6689C90.0842 53.3922 88.6127 49.0226 85.4857 49.8671C82.4691 50.6382 81.8805 55.8892 81.7334 58.3861C81.5494 62.1316 82.3587 65.8403 81.9909 69.5857C83.4624 69.5857 84.9339 69.5857 86.4054 69.5857C86.2583 65.877 86.1111 62.1683 85.9272 58.4596C85.8168 55.6322 85.3753 53.1352 82.9841 51.3726C82.2852 50.8218 80.8872 51.0422 80.2986 51.7031C77.8706 54.5673 77.6867 58.0924 78.5328 61.6175C78.9743 63.5269 79.5997 65.4364 80.1515 67.3091C80.6665 69.0716 80.9608 71.2014 81.9173 72.7436C83.4256 75.2406 87.6194 74.6531 89.7899 73.3679C90.9303 72.7069 91.7028 71.6053 91.9971 70.3201C92.1811 69.5123 92.1075 69.1818 92.6225 68.5208C93.2112 67.7864 93.7997 67.1989 94.1676 66.3176C94.793 64.9223 94.8298 63.3801 94.9034 61.9113C94.977 60.0753 95.1609 58.2026 95.1241 56.3298C95.0505 53.0618 93.9837 49.9773 91.151 48.1046C85.7064 44.506 78.8639 47.8475 76.2888 53.2821C73.2722 59.7081 75.7002 67.3091 81.3287 71.4217C83.5727 73.1476 85.78 69.3287 83.4992 67.6763Z" fill="#0A65CC"/>
</g>
</g>
<g id="Group_15">
<g id="Group_16">
<path id="Vector_8" d="M83.2789 77.407C84.0146 78.5821 85.339 79.0227 86.6633 78.6188C87.2519 78.4352 87.767 78.1047 88.2084 77.7008C88.3188 77.5906 88.4659 77.4805 88.5763 77.3336C88.6867 77.2234 88.6499 77.2234 88.5027 77.3703C89.2017 77.0031 88.6499 76.893 86.8841 76.9664C87.767 77.7008 89.1649 77.8844 90.011 76.9664C90.7836 76.1586 90.9307 74.653 90.011 73.8452C88.9442 72.9272 87.583 72.7803 86.3322 73.5147C85.9276 73.735 85.5229 74.0655 85.2286 74.4327C84.9711 74.7632 85.5597 74.2124 85.155 74.5062C85.2286 74.4694 85.3022 74.4327 85.3758 74.4327C84.6032 74.6163 85.155 74.8734 87.0312 75.2038C86.4058 74.2124 85.0447 73.735 84.0146 74.396C83.0949 75.0202 82.6167 76.3789 83.2789 77.407Z" fill="#0A65CC"/>
</g>
</g>
<g id="Group_17">
<g id="Group_18">
<path id="Vector_9" d="M84.3092 80.3079C84.3092 80.4181 84.3092 80.5282 84.3092 80.6384C84.3092 81.1892 84.5667 81.8134 84.9714 82.1806C85.3393 82.5478 85.9646 82.8416 86.5165 82.8416C87.1051 82.8049 87.6937 82.6213 88.0615 82.1806C88.4662 81.74 88.7237 81.2259 88.7237 80.6384C88.7237 80.5282 88.7237 80.4181 88.7237 80.3079C88.7237 79.7571 88.4662 79.1329 88.0615 78.7657C87.6937 78.3985 87.0683 78.1047 86.5165 78.1047C85.9279 78.1415 85.3393 78.3251 84.9714 78.7657C84.5667 79.1696 84.3092 79.6837 84.3092 80.3079Z" fill="#0A65CC"/>
</g>
</g>
<g id="Group_19">
<g id="Group_20">
<path id="Vector_10" d="M62.4571 39.6957C72.1323 28.2023 81.4028 16.3785 90.3054 4.22423C89.4593 4.55471 88.65 4.88519 87.8039 5.25239C88.65 5.50943 89.2754 5.95007 89.9008 6.5743C89.7904 5.69303 89.6801 4.81175 89.5697 3.89375C81.0717 16.0113 72.6105 28.0922 64.1126 40.2098C65.1058 39.9527 66.1359 39.6957 67.1291 39.4019C66.3934 38.9613 65.6576 38.5207 64.9219 38.0433C65.1794 39.0347 65.4369 40.0629 65.7312 41.0543C69.5939 36.0237 73.1256 30.8095 76.3261 25.3382C77.7608 22.878 73.9349 20.6748 72.5002 23.0983C69.2996 28.5328 65.768 33.7838 61.9053 38.8144C61.1695 39.7691 61.7949 41.2747 62.7146 41.8255C63.4504 42.2661 64.1861 42.7067 64.9219 43.1841C65.9887 43.845 67.2763 43.3677 67.9385 42.3763C76.4365 30.2587 84.8976 18.1778 93.3956 6.06023C93.9474 5.25239 93.6899 4.04063 93.0645 3.37967C91.9241 2.20463 90.563 1.3968 89.0179 0.919436C88.0246 0.588957 87.1049 1.13976 86.5163 1.9476C77.8712 13.7714 68.8214 25.3015 59.3669 36.5011C57.5275 38.741 60.6545 41.8989 62.4571 39.6957Z" fill="#0A65CC"/>
</g>
</g>
<g id="Group_21">
<g id="Group_22">
<path id="Vector_11" d="M37.6987 164.543C37.6987 164.433 37.6987 164.323 37.6987 164.213C37.6987 161.386 33.2842 161.386 33.2842 164.213C33.2842 164.323 33.2842 164.433 33.2842 164.543C33.2842 167.408 37.6987 167.408 37.6987 164.543C37.6987 164.433 37.6987 164.323 37.6987 164.213C37.6987 161.386 33.2842 161.386 33.2842 164.213C33.2842 164.323 33.2842 164.433 33.2842 164.543C33.2842 167.408 37.6987 167.408 37.6987 164.543Z" fill="#0A65CC"/>
</g>
</g>
<g id="Group_23">
<g id="Group_24">
<path id="Vector_12" d="M2.45597 133.809C5.28863 133.809 5.28863 129.402 2.45597 129.402C-0.376682 129.402 -0.376682 133.809 2.45597 133.809Z" fill="#0A65CC"/>
</g>
</g>
<g id="Group_25">
<g id="Group_26">
<path id="Vector_13" d="M12.4256 135.755C14.5593 135.755 14.5593 132.45 12.4256 132.45C10.292 132.45 10.292 135.755 12.4256 135.755Z" fill="#6CA3E0"/>
</g>
</g>
<g id="Group_27">
<g id="Group_28">
<path id="Vector_14" d="M147.621 51.8133C149.755 51.8133 149.755 48.5085 147.621 48.5085C145.487 48.5085 145.487 51.8133 147.621 51.8133Z" fill="#6CA3E0"/>
</g>
</g>
<g id="Group_29">
<g id="Group_30">
<path id="Vector_15" d="M168.369 101.752C168.369 101.973 168.369 102.156 168.369 102.377C168.369 102.817 168.553 103.258 168.848 103.552C169.142 103.845 169.62 104.066 170.025 104.029C170.466 103.992 170.908 103.882 171.202 103.552C171.496 103.221 171.68 102.817 171.68 102.377C171.68 102.156 171.68 101.973 171.68 101.752C171.68 101.312 171.496 100.871 171.202 100.577C170.908 100.284 170.429 100.063 170.025 100.1C169.583 100.137 169.142 100.247 168.848 100.577C168.553 100.908 168.369 101.312 168.369 101.752Z" fill="#6CA3E0"/>
</g>
</g>
</g>
</svg>
