<svg width="204" height="212" viewBox="0 0 204 212" fill="none" xmlns="http://www.w3.org/2000/svg">
<g id="doodles">
<g id="Group">
<g id="Group_2">
<path id="Vector" d="M189.015 88.5344C195.269 89.5258 204.025 92.4267 201.707 100.578C200.64 104.324 197.697 107.004 194.791 109.391C191.922 111.705 189.089 113.981 186.477 116.588C183.975 119.085 181.695 121.803 179.598 124.667C177.942 126.943 175.661 129.771 175.919 132.819C176.14 135.536 178.531 136.197 180.701 137.041C183.828 138.253 187.139 140.383 188.353 143.651C189.972 148.057 186.587 151.95 183.387 154.557C180.517 156.907 177.39 158.926 175.441 162.158C175.073 162.782 176.029 163.333 176.397 162.709C179.892 156.833 188.795 154.483 189.788 147.066C190.193 144.165 188.868 141.448 186.771 139.502C185.741 138.51 184.527 137.702 183.276 137.005C181.768 136.197 180.002 135.866 178.531 135.022C174.411 132.635 179.561 126.539 181.327 124.226C183.865 120.885 186.698 117.8 189.825 115.009C194.828 110.456 202.664 106.417 203.215 98.8159C203.767 91.1048 195.49 88.4976 189.383 87.5429C188.611 87.3593 188.316 88.4242 189.015 88.5344Z" fill="#18191C"/>
</g>
</g>
<g id="Group_3">
<g id="Group_4">
<path id="Vector_2" d="M80.3441 87.3593C73.7959 95.401 66.4015 102.708 58.2346 109.098C50.2149 115.377 41.4962 120.371 32.6303 125.328C24.4634 129.918 16.2229 134.618 9.23325 140.97C6.10628 143.798 2.64822 147.103 0.882409 151.032C-0.478741 154.079 -0.589104 158.045 2.90574 159.624C4.81871 160.469 7.06277 160.175 9.04931 159.844C12.2866 159.294 15.4872 158.596 18.6877 157.972C21.9618 157.347 25.2359 156.687 28.5101 156.062C31.637 155.475 37.4863 154.924 37.6334 159.587C37.6702 160.285 38.7739 160.285 38.7371 159.587C38.5899 155.254 33.9547 154.153 30.3862 154.594C24.9416 155.291 19.5706 156.65 14.1628 157.678C10.3737 158.412 0.257017 161.46 0.992773 154.226C1.47102 149.563 5.88555 145.524 9.08609 142.476C15.8551 136.087 23.9852 131.35 32.0785 126.797C40.5765 122.023 49.0377 117.323 56.8367 111.448C65.8129 104.654 73.943 96.7963 81.0431 88.0937C81.5581 87.5796 80.7856 86.8085 80.3441 87.3593Z" fill="#18191C"/>
</g>
</g>
<g id="Group_5">
<g id="Group_6">
<path id="Vector_3" d="M21.8148 162.782C18.5775 166.674 14.7883 171.264 15.3769 176.662C15.8184 180.812 18.7982 184.704 23.2863 184.41C26.1558 184.227 28.6941 182.648 31.1957 181.436C34.3227 179.93 37.5232 178.572 40.8341 177.58C44.1082 176.625 47.5295 176.001 50.9507 175.928C53.673 175.891 56.7632 176.075 59.0441 177.764C62.5021 180.261 60.3684 184.006 58.529 186.797C56.7264 189.477 55.1446 192.231 53.7466 195.132C52.4958 197.776 51.3922 200.53 50.5093 203.321C49.8471 205.414 49.0746 207.874 50.6932 209.71C54.1513 213.713 59.4119 210.298 62.3182 207.58C66.7695 203.431 71.5887 199.979 77.1437 197.409C83.3608 194.545 90.1298 192.856 96.9355 192.488C100.394 192.305 103.888 192.415 107.31 192.966C110.363 193.443 113.784 194.398 115.219 197.446C115.513 198.07 116.47 197.519 116.176 196.895C114.189 192.599 108.744 191.938 104.551 191.534C99.0692 191.02 93.4775 191.424 88.1064 192.599C82.7354 193.774 77.4748 195.757 72.6924 198.474C70.3379 199.796 68.1307 201.301 65.997 202.954C63.6058 204.826 61.5824 207.14 59.1544 208.866C56.9839 210.408 52.3487 211.546 51.0611 208.168C50.4357 206.515 51.2451 204.606 51.7601 202.99C52.3119 201.301 52.9373 199.649 53.6363 198.033C54.8503 195.169 56.285 192.415 57.9036 189.771C59.3384 187.458 61.4721 185.108 61.9871 182.354C62.8332 177.874 58.4187 175.561 54.6295 175.01C49.001 174.239 43.0414 175.524 37.7439 177.433C34.5066 178.608 31.4532 180.114 28.363 181.619C25.1625 183.198 21.1894 184.41 18.4671 181.289C13.3904 175.487 18.7246 168.18 22.5873 163.516C23.0656 163.002 22.293 162.231 21.8148 162.782Z" fill="#18191C"/>
</g>
</g>
<g id="Group_7">
<g id="Group_8">
<path id="Vector_4" d="M42.9675 181.362C46.4255 180.261 49.4789 183.639 49.5525 186.907C49.626 190.359 47.3452 193.333 45.0644 195.683C44.5493 196.197 45.3587 196.968 45.8369 196.454C48.6328 193.59 51.539 189.514 50.4354 185.255C49.5525 181.913 46.168 179.196 42.6731 180.298C42.011 180.518 42.2685 181.583 42.9675 181.362Z" fill="#18191C"/>
</g>
</g>
<g id="Group_9">
<g id="Group_10">
<path id="Vector_5" d="M171.468 86.6249C173.16 88.0202 175.146 88.314 177.243 88.7546C179.524 89.232 181.511 90.1133 183.092 91.8758C186.072 95.2173 186.992 100.248 184.785 104.214C184.454 104.838 185.373 105.389 185.741 104.765C187.875 100.946 187.433 96.2455 185.079 92.647C183.975 90.9578 182.43 89.489 180.554 88.6078C177.905 87.3593 174.595 87.7632 172.24 85.8538C171.688 85.4131 170.916 86.1842 171.468 86.6249Z" fill="#18191C"/>
</g>
</g>
<g id="Group_11">
<g id="Group_12">
<path id="Vector_6" d="M36.5662 164.838C38.6631 170.457 45.3217 169.024 49.4052 166.821C52.0171 165.426 54.4451 163.627 56.5788 161.57C58.8596 159.33 60.699 156.687 62.9431 154.41C65.4079 151.913 68.8659 149.636 72.5815 150.261C75.9292 150.811 77.9525 153.786 80.0862 156.062C82.8821 159 88.5106 162.011 91.3433 157.348C91.7112 156.723 90.7547 156.172 90.3868 156.797C88.5842 159.734 84.7583 158.706 82.551 156.944C80.5645 155.328 79.1297 153.125 77.18 151.472C73.5012 148.314 68.9027 148.608 65.0032 151.252C60.699 154.153 58.0871 158.963 54.1508 162.305C51.8332 164.251 49.1477 166.05 46.2782 167.115C43.2248 168.253 38.9574 168.18 37.6331 164.581C37.3756 163.884 36.3087 164.177 36.5662 164.838Z" fill="#18191C"/>
</g>
</g>
<g id="Group_13">
<g id="Group_14">
<path id="Vector_7" d="M45.7634 130.615C50.4722 134.691 54.4085 139.538 57.4619 144.973C57.793 145.597 58.7495 145.046 58.4184 144.422C55.3282 138.877 51.3551 133.994 46.5359 129.844C46.0209 129.367 45.2116 130.175 45.7634 130.615Z" fill="#18191C"/>
</g>
</g>
<g id="Group_15">
<g id="Group_16">
<path id="Vector_8" d="M46.7199 129.44C50.6929 124.189 56.3215 118.828 62.5754 116.442C63.5687 116.074 64.7091 115.744 65.7759 116.001C67.1003 116.295 67.8728 117.433 68.6454 118.461C69.749 119.893 70.8159 121.362 71.8827 122.831C73.9796 125.768 75.9662 128.816 77.8423 131.901C78.2102 132.488 79.1667 131.937 78.7988 131.35C76.4444 127.494 73.906 123.712 71.2205 120.077C69.1972 117.323 67.3578 114.091 63.4215 115.009C60.0002 115.817 56.7261 118.314 54.0406 120.407C50.9137 122.868 48.1546 125.732 45.7266 128.89C45.3587 129.44 46.3152 129.991 46.7199 129.44Z" fill="#18191C"/>
</g>
</g>
<g id="Group_17">
<g id="Group_18">
<path id="Vector_9" d="M58.1239 145.45C65.6286 142.292 72.324 137.666 77.879 131.717C78.3572 131.203 77.5847 130.432 77.1064 130.946C71.6986 136.748 65.1504 141.338 57.8296 144.385C57.1674 144.679 57.4617 145.744 58.1239 145.45Z" fill="#18191C"/>
</g>
</g>
<g id="Group_19">
<g id="Group_20">
<path id="Vector_10" d="M50.9878 130.175C55.1816 126.393 59.8537 123.271 65.004 120.885C65.6294 120.591 65.0776 119.636 64.4522 119.93C59.2283 122.353 54.4827 125.548 50.2153 129.404C49.6635 129.844 50.4728 130.652 50.9878 130.175Z" fill="#18191C"/>
</g>
</g>
<g id="Group_21">
<g id="Group_22">
<path id="Vector_11" d="M54.0406 132.011C56.3215 130.358 58.6023 128.743 60.8832 127.09C61.4718 126.686 60.9199 125.732 60.3313 126.136C58.0505 127.788 55.7697 129.404 53.4888 131.056C52.9002 131.497 53.452 132.451 54.0406 132.011Z" fill="#18191C"/>
</g>
</g>
<g id="Group_23">
<g id="Group_24">
<path id="Vector_12" d="M55.5858 134.544C59.4117 131.864 63.2377 129.147 67.0636 126.466C67.6522 126.062 67.1004 125.107 66.5118 125.511C62.6859 128.192 58.8599 130.909 55.034 133.59C54.4454 133.994 54.9972 134.948 55.5858 134.544Z" fill="#18191C"/>
</g>
</g>
<g id="Group_25">
<g id="Group_26">
<path id="Vector_13" d="M58.8233 137.556C61.1778 135.646 63.6425 133.957 66.2177 132.378C66.8431 132.011 66.2545 131.056 65.6659 131.423C62.9804 133.002 60.442 134.801 58.0508 136.748C57.499 137.225 58.2715 137.996 58.8233 137.556Z" fill="#18191C"/>
</g>
</g>
<g id="Group_27">
<g id="Group_28">
<path id="Vector_14" d="M60.5159 140.567C63.9739 137.739 67.7263 135.389 71.7361 133.443C72.3615 133.149 71.8097 132.194 71.1843 132.488C67.0641 134.471 63.2749 136.931 59.7433 139.795C59.1915 140.236 59.964 141.007 60.5159 140.567Z" fill="#18191C"/>
</g>
</g>
<g id="Group_29">
<g id="Group_30">
<path id="Vector_15" d="M136.151 163.627C137.954 161.35 135.82 158.559 133.429 157.898C130.56 157.091 127.286 158.449 125.851 161.02C124.232 163.884 124.894 167.629 126.991 170.053C129.677 173.211 136.667 175.12 135.416 180.334C135.232 181.032 136.299 181.326 136.483 180.628C137.917 174.679 130.744 172.843 127.764 169.282C125.667 166.748 125.299 162.488 127.948 160.175C129.015 159.257 130.523 158.706 131.921 158.78C133.576 158.853 137.145 160.652 135.416 162.892C134.937 163.406 135.71 164.177 136.151 163.627Z" fill="#18191C"/>
</g>
</g>
<g id="Group_31">
<g id="Group_32">
<path id="Vector_16" d="M136.74 163.406C137.034 161.423 137.954 159.661 139.426 158.302C140.125 157.641 140.934 157.127 141.817 156.723C142.258 156.54 142.736 156.356 143.215 156.246C144.245 156.026 144.465 156.026 145.312 156.76C146.158 157.531 146.194 157.751 146.158 158.816C146.158 159.22 146.084 159.624 146.047 159.991C145.937 160.726 145.716 161.423 145.459 162.121C144.907 163.627 144.061 165.022 143.178 166.344C140.014 171.044 135.489 175.34 135.232 181.326C135.195 182.023 136.299 182.023 136.335 181.326C136.666 173.284 145.017 168.657 146.93 161.166C147.298 159.734 147.592 157.898 146.967 156.503C146.194 154.887 144.502 154.814 142.957 155.181C139.205 156.062 136.335 159.33 135.747 163.113C135.563 163.81 136.63 164.141 136.74 163.406Z" fill="#18191C"/>
</g>
</g>
<g id="Group_33">
<g id="Group_34">
<path id="Vector_17" d="M142.994 107.959C142.331 111.521 142.184 115.266 142.994 118.828C143.766 122.243 146.231 121.509 149.064 121.692C155.501 122.133 164.036 126.209 168.267 118.938C168.635 118.314 167.678 117.763 167.31 118.388C163.705 124.593 156.127 121.546 150.609 120.774C149.321 120.591 148.107 120.591 146.82 120.628C144.833 120.628 144.244 119.673 143.95 117.91C143.398 114.716 143.472 111.484 144.097 108.29C144.171 107.555 143.104 107.262 142.994 107.959Z" fill="#18191C"/>
</g>
</g>
<g id="Group_35">
<g id="Group_36">
<path id="Vector_18" d="M143.141 109.722C145.128 108.51 146.857 108.29 149.101 107.922C150.057 107.776 150.683 107.408 150.83 106.417C151.235 103.92 150.168 101.35 152.154 99.2199C154.362 96.8331 157.341 98.9628 158.261 101.386C158.703 102.525 158.96 103.847 159.843 104.765C160.983 105.976 162.492 105.646 163.926 106.05C169.481 107.555 167.826 114.716 166.649 118.571C166.428 119.232 167.495 119.526 167.716 118.865C168.966 114.863 170.217 109.869 166.869 106.527C166.318 105.976 165.692 105.536 164.993 105.242C163.926 104.801 162.749 105.022 161.646 104.618C159.512 103.847 159.549 100.689 158.261 99.073C155.944 96.2088 151.97 96.6127 150.389 99.9543C149.947 100.872 149.8 101.827 149.726 102.818C149.653 103.993 150.205 106.344 148.954 106.821C148.071 107.188 146.71 107.041 145.753 107.335C144.613 107.665 143.583 108.18 142.59 108.767C142.001 109.171 142.553 110.126 143.141 109.722Z" fill="#18191C"/>
</g>
</g>
<g id="Group_37">
<g id="Group_38">
<path id="Vector_19" d="M147.519 108.583C146.967 112.916 147.703 117.213 149.616 121.142C149.91 121.766 150.866 121.215 150.572 120.591C148.733 116.845 148.07 112.733 148.622 108.583C148.733 107.886 147.629 107.886 147.519 108.583Z" fill="#18191C"/>
</g>
</g>
<g id="Group_39">
<g id="Group_40">
<path id="Vector_20" d="M112.129 84.1647C107.383 81.9615 104.551 76.8575 104.808 71.6432C105.102 66.3188 108.708 61.4718 113.306 58.9381C116.176 57.3592 119.229 56.8818 122.135 58.5709C124.784 60.0764 126.66 62.6836 127.727 65.4743C129.64 70.5416 128.941 76.3067 125.924 80.8232C125.52 81.4107 126.476 81.9615 126.881 81.374C131.884 73.9199 130.743 60.9577 121.583 57.1021C116.985 55.156 112.092 57.7631 108.781 60.9944C105.544 64.1524 103.447 68.6689 103.704 73.2222C103.999 78.2528 106.942 82.9897 111.54 85.1562C112.202 85.4132 112.754 84.4585 112.129 84.1647Z" fill="#18191C"/>
</g>
</g>
<g id="Group_41">
<g id="Group_42">
<path id="Vector_21" d="M111.614 85.4866C110.657 86.5148 110.915 88.0937 112.092 88.8648C114.005 90.1133 117.316 88.975 119.339 88.4976C121.51 87.9836 124.784 87.5062 126.255 85.5968C127.138 84.4217 127.138 82.8061 125.998 81.8146C125.446 81.374 124.673 82.1451 125.225 82.5857C126.917 84.0178 124.71 85.6702 123.386 86.1843C122.282 86.5882 121.142 86.9187 120.001 87.2124C118.934 87.4695 117.868 87.7265 116.801 87.9101C116.139 88.0203 115.403 88.2039 114.741 88.2406C113.784 88.2773 111.025 87.7632 112.423 86.2944C112.901 85.7436 112.129 84.9725 111.614 85.4866Z" fill="#18191C"/>
</g>
</g>
<g id="Group_43">
<g id="Group_44">
<path id="Vector_22" d="M113.747 89.4156C113.895 91.5821 115.734 92.9774 117.868 93.1243C120.811 93.3079 123.018 90.8477 124.747 88.8281C125.188 88.2773 124.416 87.5062 123.974 88.057C122.76 89.4891 121.399 91.1414 119.597 91.7657C117.757 92.4266 115.035 91.6922 114.888 89.4156C114.814 88.7179 113.711 88.7179 113.747 89.4156Z" fill="#18191C"/>
</g>
</g>
<g id="Group_45">
<g id="Group_46">
<path id="Vector_23" d="M116.727 93.5283C116.433 95.0338 117.353 96.6127 118.935 96.8698C120.553 97.1268 121.951 95.6947 121.988 94.1525C121.988 93.4548 120.884 93.4548 120.884 94.1525C120.884 95.0705 120.001 95.9885 119.008 95.7682C118.162 95.5846 117.61 94.6299 117.794 93.822C117.941 93.1243 116.874 92.8306 116.727 93.5283Z" fill="#18191C"/>
</g>
</g>
<g id="Group_47">
<g id="Group_48">
<path id="Vector_24" d="M109.186 70.2846C112.349 72.3042 114.777 75.1316 116.322 78.5466C116.617 79.2075 117.573 78.62 117.279 77.9958C115.66 74.3972 113.085 71.4596 109.737 69.3299C109.112 68.9627 108.56 69.9174 109.186 70.2846Z" fill="#18191C"/>
</g>
</g>
<g id="Group_49">
<g id="Group_50">
<path id="Vector_25" d="M114.851 67.604C115.55 72.8917 116.286 78.1793 116.985 83.4303C117.095 84.128 118.125 83.8342 118.052 83.1365C117.353 77.8489 116.617 72.5612 115.918 67.3102C115.808 66.6126 114.778 66.9063 114.851 67.604Z" fill="#18191C"/>
</g>
</g>
<g id="Group_51">
<g id="Group_52">
<path id="Vector_26" d="M116.764 76.6004C117.721 73.1487 119.928 70.358 123.055 68.5954C123.681 68.265 123.129 67.3102 122.503 67.6407C119.156 69.5134 116.728 72.5979 115.698 76.3066C115.514 77.0043 116.581 77.298 116.764 76.6004Z" fill="#18191C"/>
</g>
</g>
<g id="Group_53">
<g id="Group_54">
<path id="Vector_27" d="M76.6654 171.007C78.1369 174.202 79.7188 177.36 81.4846 180.408C82.3675 181.913 83.5447 184.777 85.7152 183.859C86.3774 183.566 85.7888 182.648 85.1634 182.905C83.7654 183.492 81.2639 177.8 80.7856 176.882C79.6452 174.789 78.6151 172.623 77.6219 170.457C77.3276 169.796 76.3711 170.346 76.6654 171.007Z" fill="#18191C"/>
</g>
</g>
<g id="Group_55">
<g id="Group_56">
<path id="Vector_28" d="M77.6587 171.668C80.7856 169.245 83.839 166.748 87.0028 164.398C89.7618 162.305 92.7417 160.285 96.1261 159.33C99.7681 158.265 102.932 159.11 105.36 162.048C107.42 164.545 108.671 167.629 110.069 170.493C110.363 171.117 111.319 170.567 111.025 169.942C108.34 164.434 105.176 156.65 97.6344 157.862C93.8821 158.449 90.4976 160.505 87.4442 162.709C83.839 165.352 80.381 168.18 76.8493 170.934C76.3343 171.338 77.1068 172.109 77.6587 171.668Z" fill="#18191C"/>
</g>
</g>
<g id="Group_57">
<g id="Group_58">
<path id="Vector_29" d="M84.2068 183.969C93.8084 181.876 102.711 177.397 110.179 171.007C110.731 170.53 109.921 169.759 109.406 170.236C102.086 176.515 93.3302 180.848 83.9125 182.941C83.2135 183.088 83.5078 184.153 84.2068 183.969Z" fill="#18191C"/>
</g>
</g>
<g id="Group_59">
<g id="Group_60">
<path id="Vector_30" d="M93.1462 173.614C91.1964 173.137 89.5778 171.228 90.056 169.135C90.4975 167.115 92.9622 165.646 94.912 166.601C98.8483 168.584 96.1628 174.239 92.1161 172.807C91.4539 172.586 91.1596 173.651 91.8218 173.871C94.1027 174.679 96.8618 173.578 97.7447 171.264C98.6276 168.988 97.1928 166.234 94.9488 165.426C92.5208 164.545 89.7617 166.197 89.0627 168.621C88.2534 171.338 90.2399 174.018 92.8519 174.679C93.5508 174.863 93.8452 173.798 93.1462 173.614Z" fill="#18191C"/>
</g>
</g>
<g id="Group_61">
<g id="Group_62">
<path id="Vector_31" d="M112.754 145.744C112.312 141.815 112.276 137.335 116.948 136.27C119.302 135.719 121.252 135.022 122.613 132.855C124.011 130.652 123.827 128.596 123.275 126.172C122.87 124.263 122.907 122.61 124.452 121.178C125.703 120.04 127.359 119.599 128.977 120.114C129.639 120.334 129.934 119.269 129.272 119.049C126.917 118.314 124.452 119.232 122.944 121.178C120.626 124.226 123.349 127.311 122.429 130.579C121.877 132.525 120.369 134.177 118.419 134.838C116.837 135.352 115.145 135.316 113.821 136.417C111.025 138.694 111.282 142.549 111.65 145.744C111.724 146.442 112.827 146.442 112.754 145.744Z" fill="#18191C"/>
</g>
</g>
<g id="Group_63">
<g id="Group_64">
<path id="Vector_32" d="M103.778 125.181C102.637 124.263 103.557 122.207 105.029 122.978C105.617 123.271 105.985 123.969 105.654 124.593C105.323 125.218 104.477 125.548 103.851 125.218C103.226 124.887 102.674 125.842 103.299 126.172C104.44 126.723 105.838 126.319 106.537 125.291C107.273 124.189 106.794 122.794 105.727 122.133C104.661 121.472 103.226 121.656 102.527 122.757C101.902 123.786 102.049 125.218 103.005 125.989C103.557 126.393 104.33 125.622 103.778 125.181Z" fill="#18191C"/>
</g>
</g>
<g id="Group_65">
<g id="Group_66">
<path id="Vector_33" d="M154.104 68.265C153.441 67.2001 153.037 65.8415 153.441 64.6297C153.772 63.6015 154.803 62.9773 155.869 63.0875C157.047 63.1976 157.672 64.2992 157.047 65.3274C156.495 66.2821 155.354 66.7595 154.287 66.6126C153.589 66.5391 153.589 67.6407 154.287 67.7142C155.869 67.8978 157.598 66.9431 158.187 65.4375C158.739 64.0789 158.04 62.5734 156.642 62.1327C155.318 61.6921 153.699 62.2062 152.89 63.3445C151.676 64.9969 152.154 67.2368 153.147 68.8892C153.515 69.4033 154.471 68.8525 154.104 68.265Z" fill="#18191C"/>
</g>
</g>
<g id="Group_67">
<g id="Group_68">
<path id="Vector_34" d="M94.7648 113.284C96.7513 116.882 100.798 118.902 104.881 118.314C109.885 117.58 112.57 113.761 114.557 109.501C116.874 104.581 120.075 100.542 125.188 98.3753C129.824 96.4292 135.82 97.4206 139.646 93.7853C141.117 92.39 142.111 90.4438 141.78 88.3875C141.522 86.8085 140.566 85.4866 140.934 83.8342C141.375 82.035 142.773 80.713 144.539 80.3458C145.238 80.199 144.943 79.1341 144.244 79.281C142.111 79.7583 140.382 81.374 139.867 83.5405C139.572 84.7155 139.793 85.7804 140.161 86.9187C140.75 88.7547 140.97 90.2602 139.756 91.9493C137.623 94.9236 133.87 95.3276 130.523 95.8049C127.543 96.2456 124.747 97.0534 122.172 98.5956C119.891 99.9543 117.868 101.79 116.286 103.92C114.557 106.27 113.6 109.024 112.202 111.558C110.436 114.679 107.53 117.066 103.815 117.286C100.43 117.47 97.2663 115.67 95.6109 112.696C95.3902 112.109 94.4337 112.659 94.7648 113.284Z" fill="#18191C"/>
</g>
</g>
<g id="Group_69">
<g id="Group_70">
<path id="Vector_35" d="M87.0763 53.0629C86.4509 57.6529 85.8255 62.2429 85.2369 66.8329C85.1265 67.5306 86.1934 67.8243 86.3037 67.1266C86.9291 62.5367 87.5545 57.9467 88.1431 53.3567C88.2535 52.659 87.1866 52.3652 87.0763 53.0629Z" fill="#18191C"/>
</g>
</g>
<g id="Group_71">
<g id="Group_72">
<path id="Vector_36" d="M86.8924 67.4571C91.2334 64.3359 95.5744 61.2147 99.9153 58.0935C100.504 57.6896 99.9521 56.7349 99.3635 57.1388C95.0225 60.26 90.6816 63.3812 86.3406 66.5024C85.752 66.9063 86.3038 67.8611 86.8924 67.4571Z" fill="#18191C"/>
</g>
</g>
<g id="Group_73">
<g id="Group_74">
<path id="Vector_37" d="M87.7748 53.6872C98.664 39.1093 109.369 24.4214 119.891 9.58651C120.295 8.99899 119.339 8.44819 118.934 9.03571C108.413 23.8706 97.7076 38.5953 86.8184 53.1364C86.4137 53.6872 87.3702 54.238 87.7748 53.6872Z" fill="#18191C"/>
</g>
</g>
<g id="Group_75">
<g id="Group_76">
<path id="Vector_38" d="M101.276 56.4412C111.283 43.222 120.995 29.7825 130.412 16.1227C130.817 15.5351 129.86 14.9843 129.456 15.5719C120.038 29.195 110.326 42.6712 100.32 55.8904C99.8784 56.4412 100.835 56.9919 101.276 56.4412Z" fill="#18191C"/>
</g>
</g>
<g id="Group_77">
<g id="Group_78">
<path id="Vector_39" d="M119.56 9.5865C121.289 6.35514 123.312 2.42611 127.138 1.36123C130.927 0.296352 134.643 3.16051 134.717 7.08954C134.717 7.78722 135.82 7.78722 135.82 7.08954C135.783 3.30739 132.583 -0.107566 128.683 0.00259405C123.57 0.149474 120.7 5.03323 118.604 9.0357C118.272 9.65994 119.229 10.2107 119.56 9.5865Z" fill="#18191C"/>
</g>
</g>
<g id="Group_79">
<g id="Group_80">
<path id="Vector_40" d="M130.633 16.0125C132.509 13.2218 134.201 10.3576 135.71 7.34658C136.041 6.72234 135.084 6.17154 134.753 6.79578C133.245 9.80681 131.553 12.671 129.676 15.4617C129.308 16.0125 130.265 16.6 130.633 16.0125Z" fill="#18191C"/>
</g>
</g>
<g id="Group_81">
<g id="Group_82">
<path id="Vector_41" d="M118.75 11.3858C122.981 8.52161 128.462 10.0638 130.559 14.6906C130.853 15.3515 131.81 14.764 131.516 14.1398C129.161 8.96225 122.87 7.23641 118.198 10.431C117.61 10.835 118.162 11.7897 118.75 11.3858Z" fill="#18191C"/>
</g>
</g>
<g id="Group_83">
<g id="Group_84">
<path id="Vector_42" d="M116.801 14.6906C120.48 12.3405 125.887 13.8827 127.58 17.9953C127.837 18.6563 128.904 18.3626 128.647 17.7016C126.66 13.0014 120.59 10.9818 116.249 13.7358C115.66 14.1398 116.212 15.0945 116.801 14.6906Z" fill="#18191C"/>
</g>
</g>
<g id="Group_85">
<g id="Group_86">
<path id="Vector_43" d="M87.1128 54.2012C89.1361 55.413 91.1594 52.7691 93.2563 52.8058C94.8382 52.8426 96.3097 53.5769 97.2294 54.8989C97.8916 55.8536 98.2227 56.7716 99.2895 57.3224C99.9149 57.6529 100.467 56.6981 99.8413 56.3677C98.5906 55.7067 98.2227 54.091 97.1558 53.173C96.4201 52.5488 95.5372 52.1082 94.5807 51.8878C93.6242 51.6675 92.6309 51.6675 91.7112 51.8878C90.534 52.1816 88.805 53.9074 87.7014 53.2465C87.076 52.8793 86.5242 53.834 87.1128 54.2012Z" fill="#18191C"/>
</g>
</g>
<g id="Group_87">
<g id="Group_88">
<path id="Vector_44" d="M93.1462 52.2183C100.577 42.4508 108.045 32.6466 115.476 22.8791C115.918 22.3283 114.961 21.7775 114.52 22.3283C107.089 32.0958 99.6208 41.9 92.1897 51.6675C91.785 52.2183 92.7415 52.7691 93.1462 52.2183Z" fill="#18191C"/>
</g>
</g>
<g id="Group_89">
<g id="Group_90">
<path id="Vector_45" d="M104.808 44.8743C111.724 34.7396 119.044 24.9354 126.807 15.425C127.248 14.8742 126.476 14.103 126.034 14.6538C118.235 24.2377 110.804 34.1154 103.851 44.3236C103.483 44.9111 104.44 45.4619 104.808 44.8743Z" fill="#18191C"/>
</g>
</g>
<g id="Group_91">
<g id="Group_92">
<path id="Vector_46" d="M86.6718 63.9687C87.3708 63.3812 88.4009 63.9687 88.2169 64.8867C88.0698 65.5844 89.1366 65.8782 89.2838 65.1805C89.4677 64.2992 89.1366 63.3812 88.3273 62.9038C87.518 62.4265 86.5615 62.6101 85.8625 63.1976C85.3475 63.6382 86.12 64.4094 86.6718 63.9687Z" fill="#18191C"/>
</g>
</g>
<g id="Group_93">
<g id="Group_94">
<path id="Vector_47" d="M87.0026 63.8219C86.8186 64.593 86.4876 65.2906 86.0093 65.9149C86.3036 66.0985 86.6347 66.2821 86.929 66.4657C87.1497 65.6578 87.5912 64.9602 88.2166 64.3727C87.9223 64.3359 87.628 64.2992 87.3337 64.2625C87.5176 64.6664 87.3705 65.107 87.0026 65.3274C87.2601 65.4375 87.5544 65.5477 87.8119 65.6579C87.6648 65.1438 87.7751 64.6664 88.1062 64.2625C87.8855 64.2992 87.6648 64.3359 87.444 64.3359C87.7383 64.4828 87.7015 64.8867 87.4072 65.0336C87.628 65.0703 87.8487 65.1071 88.0694 65.1071C87.8487 64.9235 87.6648 64.7031 87.5544 64.4461C87.5176 64.3359 87.4808 64.2258 87.444 64.0789C87.444 64.0055 87.3705 63.2343 87.2601 63.4547C86.929 64.0789 87.8855 64.6297 88.2166 64.0055C88.7316 63.0507 87.4072 62.2062 86.6715 62.9773C85.899 63.8219 86.5979 65.2172 87.3337 65.8415C87.5176 66.0251 87.7751 66.0618 87.9959 65.9149C89.0259 65.4008 89.0259 63.8586 88.0326 63.3078C87.8487 63.1976 87.5176 63.1976 87.3705 63.3812C86.7819 64.0789 86.5611 64.9602 86.7819 65.8415C86.8554 66.1719 87.2969 66.3555 87.5912 66.1719C88.5109 65.6211 88.7684 64.5195 88.3269 63.6015C88.1798 63.2711 87.7016 63.2711 87.444 63.4914C86.6715 64.189 86.1565 65.0703 85.899 66.0618C85.7518 66.5391 86.4508 67.0532 86.8186 66.6126C87.4072 65.8414 87.8487 64.9969 88.1062 64.0422C88.2534 63.4179 87.1865 63.1242 87.0026 63.8219Z" fill="#18191C"/>
</g>
</g>
<g id="Group_95">
<g id="Group_96">
<path id="Vector_48" d="M84.9427 69.5868C84.2069 73.5526 82.5515 77.1879 79.9396 80.2724C79.4981 80.8232 80.2706 81.5943 80.7121 81.0435C83.4344 77.7754 85.237 74.03 86.0095 69.8439C86.1199 69.1829 85.053 68.8892 84.9427 69.5868Z" fill="#18191C"/>
</g>
</g>
<g id="Group_97">
<g id="Group_98">
<path id="Vector_49" d="M77.254 74.1769C73.4281 77.0043 69.3815 79.538 65.1876 81.7779C64.5623 82.1084 65.1141 83.0631 65.7395 82.7326C69.9333 80.4927 73.9799 77.959 77.8059 75.1316C78.3945 74.6909 77.8426 73.7362 77.254 74.1769Z" fill="#18191C"/>
</g>
</g>
<g id="Group_99">
<g id="Group_100">
<path id="Vector_50" d="M167.053 158.119C166.06 156.576 164.404 157.384 163.521 158.559C162.565 159.771 161.792 161.203 160.983 162.525C160.357 163.553 159.622 164.691 159.511 165.977C159.291 168.547 161.24 168.841 163.19 169.465C165.508 170.236 165.361 172.953 163.889 174.459C162.712 175.671 160.983 176.185 159.438 176.699C158.776 176.919 159.07 177.984 159.732 177.764C162.822 176.772 167.421 174.532 165.839 170.42C165.581 169.759 165.14 169.208 164.551 168.841C164.22 168.657 163.852 168.51 163.484 168.4C162.418 168.07 162.123 168.18 161.277 167.262C160.578 166.858 160.357 166.307 160.688 165.573C160.836 165.059 161.02 164.581 161.277 164.141C161.571 163.553 161.939 163.002 162.307 162.452C162.675 161.901 165.25 157.274 166.096 158.633C166.464 159.257 167.421 158.706 167.053 158.119Z" fill="#18191C"/>
</g>
</g>
<g id="Group_101">
<g id="Group_102">
<path id="Vector_51" d="M103.888 201.338C106.905 200.567 109.48 203.541 108.155 206.405C107.861 207.03 108.818 207.617 109.112 206.956C110.841 203.247 107.64 199.245 103.63 200.273C102.895 200.457 103.189 201.522 103.888 201.338Z" fill="#18191C"/>
</g>
</g>
<g id="Group_103">
<g id="Group_104">
<path id="Vector_52" d="M160.247 140.86C158.849 139.832 158.849 137.152 160.983 137.078C161.756 137.041 162.565 137.482 162.528 138.327C162.528 139.024 161.903 139.869 161.13 139.759C160.431 139.649 160.137 140.713 160.836 140.824C162.197 141.044 163.374 140.052 163.595 138.731C163.853 137.372 162.859 136.197 161.535 136.013C160.174 135.793 158.776 136.564 158.298 137.886C157.819 139.355 158.482 140.934 159.696 141.815C160.247 142.219 160.799 141.264 160.247 140.86Z" fill="#18191C"/>
</g>
</g>
<g id="Group_105">
<g id="Group_106">
<path id="Vector_53" d="M6.47425 136.307C6.98928 134.251 8.75509 133.076 10.4105 131.937C12.1396 130.726 13.9054 129.477 15.6712 128.265C19.166 125.805 22.6609 123.382 26.1557 120.921C26.7443 120.517 26.1925 119.563 25.6039 119.967C21.5205 122.831 17.437 125.658 13.3536 128.522C10.5945 130.432 6.2903 132.451 5.4074 136.013C5.22346 136.711 6.29031 137.005 6.47425 136.307Z" fill="#18191C"/>
</g>
</g>
</g>
</svg>
