<svg width="40" height="40" viewBox="0 0 40 40" fill="none" xmlns="http://www.w3.org/2000/svg">
<g id="excellence(1) 2" clip-path="url(#clip0_1_1829)">
<g id="Group">
<g id="Group_2">
<path id="Vector" d="M24.969 30.9314L20.0271 33.7552L15.0853 30.9314C10.3117 28.2036 7.36572 23.1271 7.36572 17.629V4.21891L20.0272 1.1969L32.6887 4.21891V17.6291C32.6886 23.1271 29.7426 28.2036 24.969 30.9314Z" stroke="white" stroke-width="2" stroke-miterlimit="10"/>
</g>
<g id="Group_3">
<path id="Vector_2" d="M15.1291 30.975L9.68695 37.9298L7.04164 33.3919L2.03894 31.7911L8.67969 23.719" stroke="white" stroke-width="2" stroke-miterlimit="10"/>
<path id="Vector_3" d="M24.8992 31.0011L30.315 37.9297L32.9603 33.3919L37.9631 31.7911L31.4032 23.7998" stroke="white" stroke-width="2" stroke-miterlimit="10"/>
</g>
<g id="Group_4">
<path id="Vector_4" d="M20.0271 9.68542L22.438 12.9862L26.3221 14.259L23.9279 17.5718L23.9176 21.6592L20.0271 20.4059L16.1366 21.6592L16.1264 17.5718L13.7322 14.259L17.6163 12.9862L20.0271 9.68542Z" stroke="white" stroke-width="2" stroke-miterlimit="10"/>
</g>
</g>
</g>
<defs>
<clipPath id="clip0_1_1829">
<rect width="40" height="40" fill="white"/>
</clipPath>
</defs>
</svg>
