<svg width="24" height="24" viewBox="0 0 24 24" fill="none" xmlns="http://www.w3.org/2000/svg">
<g id="g135">
<g id="g137">
<g id="Clip path group">
<mask id="mask0_2039_3527" style="mask-type:luminance" maskUnits="userSpaceOnUse" x="0" y="0" width="24" height="24">
<g id="clipPath143">
<path id="path141" d="M0 1.90735e-06H24V24H0V1.90735e-06Z" fill="white"/>
</g>
</mask>
<g mask="url(#mask0_2039_3527)">
<g id="g139">
<g id="g145">
<path id="path147" d="M19.3091 6.37329V4.49618C19.3091 3.46184 18.4705 2.62329 17.4362 2.62329H2.80908C1.77357 2.62329 0.934082 3.46278 0.934082 4.49829C0.934082 5.53381 1.77357 6.37329 2.80908 6.37329H21.1862C22.2205 6.37329 23.0591 7.21184 23.0591 8.24618V11.0608" stroke="#3544CD" stroke-width="2" stroke-miterlimit="10"/>
</g>
<g id="g149">
<path id="path151" d="M23.0591 16.6858V19.5004C23.0591 20.5347 22.2205 21.3733 21.1862 21.3733H2.80908C1.77357 21.3733 0.934082 20.5339 0.934082 19.4983V4.49829" stroke="#3544CD" stroke-width="2" stroke-miterlimit="10"/>
</g>
<g id="g153">
<path id="path155" d="M23.0591 16.6858H18.3716C16.8183 16.6858 15.5591 15.4266 15.5591 13.8733C15.5591 12.32 16.8183 11.0608 18.3716 11.0608H23.0591V16.6858Z" stroke="#3544CD" stroke-width="2" stroke-miterlimit="10"/>
</g>
</g>
</g>
</g>
</g>
</g>
</svg>
