<svg width="95" height="110" viewBox="0 0 95 110" fill="none" xmlns="http://www.w3.org/2000/svg">
<g id="head">
<path id="Vector" d="M14.8286 37.0473C15.1965 40.9763 15.8587 46.4843 17.3302 52.9837C18.2867 57.2065 18.8753 59.8871 20.1261 63.2286C22.0022 68.2592 25.5707 77.8798 34.878 84.159C37.122 85.7012 40.8376 87.7575 46.0615 88.9693C46.9076 89.0427 47.7537 89.1529 48.5998 89.2263C48.8941 90.7686 49.262 93.0452 49.6299 95.7992C50.5128 102.886 50.0713 105.053 51.9107 106.962C54.1548 109.275 57.7232 109.055 58.4957 108.982C64.6393 108.578 67.7295 102.482 67.8766 102.152C66.8834 100.352 65.8901 98.1493 65.0808 95.5789C63.3149 89.8873 63.2781 84.8199 63.5724 81.3682C66.4051 77.2923 69.5321 74.1711 72.6958 71.7476C73.9098 70.8296 74.9399 69.5812 76.7425 68.9569C79.3176 68.0756 80.642 68.9569 82.5549 68.3694C85.7187 67.378 87.0798 63.302 87.6684 61.6129C89.9125 54.9299 87.1534 48.3203 85.3876 44.3913C83.8057 40.7927 79.6855 31.8698 69.6424 24.893C59.3051 17.6959 38.6303 9.69094 24.9453 20.0827C22.5908 21.882 17.2198 26.6923 14.8286 37.0473Z" fill="white"/>
<path id="Vector_2" d="M16.3736 52.1759C14.0192 51.772 8.05955 50.3766 4.19683 45.2726C-1.68923 37.5247 1.47453 26.6923 4.74864 20.9639C9.89894 11.9676 19.2798 8.84636 31.0519 4.91733C38.0416 2.60397 44.7002 0.400781 53.75 0.76798C58.7532 0.9883 75.7124 1.7227 85.8658 14.3176C91.899 21.7718 92.5612 29.7767 93.8856 45.5663C94.511 52.8001 94.0327 56.7292 92.7819 60.4746C91.8622 63.1919 88.8824 71.8945 80.3108 75.3829C75.8227 77.2189 71.6657 76.8517 69.3849 76.4845C71.445 73.4368 73.5051 70.4257 75.602 67.378C76.7792 67.4514 80.973 67.5248 84.1736 64.624C88.5513 60.6215 89.3239 52.6533 86.1233 50.5235C83.7689 48.9445 79.0968 50.4868 75.0502 54.1221C74.6823 51.8087 74.0937 49.275 73.1004 46.6679C68.4652 34.2198 58.3853 27.3899 53.4557 24.5625C51.506 27.0595 45.3256 34.3667 34.3629 37.2676C25.6809 39.5442 18.4705 37.9286 15.27 36.9738C15.6378 42.0412 16.0057 47.1086 16.3736 52.1759Z" fill="#ADB2BA"/>
<g id="Group">
<g id="Group_2">
<path id="Vector_3" d="M14.5341 38.002C16.0424 49.3485 17.6243 61.1356 23.1792 71.3437C27.7409 79.7159 35.0985 86.8762 44.553 89.263C45.2519 89.4466 45.5462 88.3818 44.8473 88.1982C35.5032 85.8114 28.2928 78.6143 23.8782 70.2788C18.6176 60.3644 17.1093 48.9813 15.6377 38.002C15.5274 37.3043 14.4237 37.3043 14.5341 38.002Z" fill="#18191C"/>
</g>
</g>
<g id="Group_3">
<g id="Group_4">
<path id="Vector_4" d="M44.5533 89.4099C51.2119 89.4099 58.2015 85.8481 63.4254 82.0292C68.6861 78.1736 72.9902 73.2164 76.0804 67.4881C76.4115 66.8639 75.455 66.3131 75.1239 66.9373C72.1441 72.5187 67.9871 77.3658 62.8736 81.0745C57.7601 84.8199 50.9911 88.3083 44.5533 88.3083C43.8175 88.3083 43.8175 89.4099 44.5533 89.4099Z" fill="#18191C"/>
</g>
</g>
<g id="Group_5">
<g id="Group_6">
<path id="Vector_5" d="M63.3885 81.148C62.6527 88.5654 64.0874 95.9828 67.4719 102.629C67.803 103.253 68.7595 102.703 68.4284 102.078C65.1175 95.5789 63.7931 88.3818 64.4921 81.148C64.5657 80.4503 63.462 80.4503 63.3885 81.148Z" fill="#18191C"/>
</g>
</g>
<g id="Group_7">
<g id="Group_8">
<path id="Vector_6" d="M47.3858 89.2263C48.5998 93.4124 49.5931 97.6719 50.3289 101.968C50.8071 104.832 50.991 108.064 54.1916 109.129C58.974 110.744 66.0373 107.88 67.8767 103.143C68.1342 102.482 67.0673 102.188 66.8098 102.849C65.7798 105.53 63.2046 106.999 60.5559 107.77C58.3486 108.394 55.0009 109.055 53.1247 107.256C52.0211 106.191 51.874 104.502 51.6532 103.07C51.3957 101.564 51.1382 100.059 50.8439 98.5532C50.1817 95.3218 49.4092 92.0904 48.4895 88.9325C48.2687 88.2716 47.2019 88.5653 47.3858 89.2263Z" fill="#18191C"/>
</g>
</g>
<g id="Group_9">
<g id="Group_10">
<path id="Vector_7" d="M48.9677 93.7796C55.5159 92.935 59.8201 87.9411 62.9838 82.58C63.3517 81.9558 62.3952 81.405 62.0273 82.0292C59.1211 87.0231 55.0745 91.9068 48.9677 92.678C48.2687 92.7881 48.2687 93.8897 48.9677 93.7796Z" fill="#18191C"/>
</g>
</g>
<g id="Group_11">
<g id="Group_12">
<path id="Vector_8" d="M48.7102 90.0341C53.8237 89.4466 58.4222 87.0598 61.8435 83.2043C62.3217 82.6902 61.5492 81.8824 61.0709 82.4332C57.8704 86.0684 53.5294 88.3818 48.7102 88.9325C48.0481 89.006 48.0113 90.1076 48.7102 90.0341Z" fill="#18191C"/>
</g>
</g>
<g id="Group_13">
<g id="Group_14">
<path id="Vector_9" d="M48.894 89.2263C53.0143 88.6388 56.7298 86.9497 59.8935 84.2691C60.4453 83.7917 59.636 83.0206 59.121 83.498C56.1044 86.0684 52.536 87.6473 48.5997 88.1981C47.9008 88.2716 48.1951 89.3365 48.894 89.2263Z" fill="#18191C"/>
</g>
</g>
<g id="Group_15">
<g id="Group_16">
<path id="Vector_10" d="M48.6734 90.1443C48.8574 91.0256 48.8206 92.7882 49.9242 93.0819C50.9911 93.3757 52.6097 92.1272 53.4558 91.6131C56.3621 89.8506 58.79 87.4638 60.703 84.673C61.1077 84.0855 60.1512 83.5347 59.7465 84.1222C58.3854 86.1418 56.7299 87.9411 54.7802 89.4099C53.8605 90.1076 52.904 90.6951 51.9108 91.2459C51.5061 91.4662 50.5864 92.0905 50.1817 91.8334C49.9242 91.6866 49.8138 90.1076 49.7771 89.8505C49.5931 89.1529 48.5263 89.4466 48.6734 90.1443Z" fill="#18191C"/>
</g>
</g>
<g id="Group_17">
<g id="Group_18">
<path id="Vector_11" d="M49.1881 91.1725C52.3518 89.8873 55.3316 88.2716 58.1274 86.3255C58.7161 85.9215 58.1642 84.9668 57.5756 85.3708C54.8534 87.2802 51.9839 88.8591 48.8938 90.1076C48.2316 90.3647 48.5259 91.4295 49.1881 91.1725Z" fill="#18191C"/>
</g>
</g>
<g id="Group_19">
<g id="Group_20">
<path id="Vector_12" d="M49.7399 92.2741C53.2716 91.0256 56.3618 89.0794 58.9369 86.3622C59.4152 85.8481 58.6427 85.077 58.1644 85.591C55.6996 88.1247 52.7934 90.0341 49.4456 91.2092C48.7835 91.4662 49.0778 92.5311 49.7399 92.2741Z" fill="#18191C"/>
</g>
</g>
<g id="Group_21">
<g id="Group_22">
<path id="Vector_13" d="M50.3289 91.6865C52.9408 90.5482 55.332 89.006 57.3921 87.0231C57.9072 86.5457 57.1346 85.7746 56.6196 86.2519C54.5963 88.1614 52.3154 89.6302 49.7771 90.7318C49.1149 91.0256 49.6667 91.9803 50.3289 91.6865Z" fill="#18191C"/>
</g>
</g>
<g id="Group_23">
<g id="Group_24">
<path id="Vector_14" d="M20.2733 65.9091C14.2768 63.7794 12.2903 55.958 12.8789 50.3032C13.5043 44.0975 19.096 37.341 25.9386 40.2419C29.2127 41.6373 30.4267 45.2358 31.3096 48.4304C32.2293 51.8087 32.6339 55.5541 31.751 59.0058C30.9785 62.0535 29.1023 64.9544 26.1593 66.2763C23.2163 67.5982 19.7214 66.8639 17.7349 64.3302C17.2934 63.7794 16.5209 64.5505 16.9624 65.1013C20.31 69.3975 26.6007 68.553 29.9852 64.7708C34.2894 59.9605 33.8479 52.6532 32.0085 46.8882C31.1624 44.2077 30.0588 41.4169 27.594 39.8747C25.4603 38.5161 22.738 38.1856 20.3468 38.8098C14.7551 40.3153 11.8489 46.2272 11.7385 51.6251C11.6281 57.537 13.9457 64.8443 20.0525 66.974C20.6411 67.1943 20.9354 66.1295 20.2733 65.9091Z" fill="#18191C"/>
</g>
</g>
<g id="Group_25">
<g id="Group_26">
<path id="Vector_15" d="M33.0018 54.9299C36.607 52.7634 40.9847 52.5431 44.7371 54.4158C45.3625 54.7463 45.9143 53.7916 45.2889 53.4611C41.1687 51.4048 36.3863 51.5884 32.4132 53.9752C31.8614 54.3424 32.4132 55.2971 33.0018 54.9299Z" fill="#18191C"/>
</g>
</g>
<g id="Group_27">
<g id="Group_28">
<path id="Vector_16" d="M50.5864 62.7512C46.4294 58.7488 44.7003 52.5431 46.319 46.9617C48.0112 41.1599 53.8237 36.166 60.0776 38.2223C66.9937 40.499 67.3616 50.3766 65.559 56.1784C64.4922 59.5933 62.3585 63.0083 58.8268 64.2568C55.2952 65.5052 52.2418 63.6325 49.4092 61.6496C48.8206 61.2457 48.2687 62.2004 48.8573 62.6044C51.175 64.2568 53.6766 65.9092 56.6196 65.799C59.4154 65.6888 61.9538 64.1466 63.6828 62.0536C67.5823 57.3534 68.3549 50.193 66.7362 44.4647C65.2647 39.2505 60.9237 35.8722 55.3688 36.7902C50.0713 37.6348 46.1718 42.4084 44.9946 47.4023C43.6335 53.1673 45.4729 59.4097 49.7403 63.5224C50.3289 64.0364 51.1014 63.2286 50.5864 62.7512Z" fill="#18191C"/>
</g>
</g>
<g id="Group_29">
<g id="Group_30">
<path id="Vector_17" d="M23.6207 50.6704C23.2528 52.9837 23.6575 55.2237 24.9082 57.2065C25.1658 57.6105 25.7544 57.537 25.9015 57.0597C26.7844 54.526 25.5336 52.029 24.2829 49.8626C24.0253 49.3852 23.2528 49.6055 23.2528 50.1563C23.2896 52.1025 23.6943 54.0119 24.43 55.8112C24.6875 56.4721 25.7543 56.1784 25.4968 55.5174C24.7979 53.7916 24.3932 52.029 24.3564 50.1563C24.0253 50.2665 23.6575 50.3399 23.3264 50.4501C24.4668 52.3962 25.644 54.526 24.8347 56.8026C25.1658 56.7659 25.4968 56.7292 25.8279 56.6557C24.7243 54.9299 24.3196 52.9838 24.6507 50.9642C24.7979 50.2665 23.731 49.9727 23.6207 50.6704Z" fill="#18191C"/>
</g>
</g>
<g id="Group_31">
<g id="Group_32">
<path id="Vector_18" d="M56.1782 49.6422C56.1782 49.1649 56.1414 49.0547 55.9207 48.6508C55.6632 48.1734 54.8906 48.3937 54.8906 48.9445C54.9274 51.2212 55.1114 53.6814 56.8772 55.2971C57.245 55.6276 57.76 55.3705 57.8336 54.8932C58.1279 52.1759 57.3186 49.6422 55.6264 47.5125C55.2585 47.0718 54.5963 47.5492 54.7067 48.0633C55.1481 49.8625 55.7 51.6251 56.3621 53.3142C56.6196 53.9752 57.6865 53.6814 57.429 53.0204C56.73 51.2946 56.1782 49.5688 55.7735 47.7695C55.4792 47.9531 55.1482 48.1367 54.8539 48.3203C56.3621 50.2297 56.9875 52.5064 56.73 54.9299C57.0611 54.783 57.3554 54.6728 57.6865 54.526C56.1046 53.0939 56.031 50.9274 55.9943 48.9445C55.6632 49.0547 55.2953 49.1281 54.9642 49.2383C55.001 49.3852 55.0378 49.5321 55.0746 49.6789C55.0746 50.3399 56.1782 50.3399 56.1782 49.6422Z" fill="#18191C"/>
</g>
</g>
<g id="Group_33">
<g id="Group_34">
<path id="Vector_19" d="M36.6804 56.8761C35.9446 59.0793 35.3192 61.3192 34.9146 63.5958C34.6938 64.8076 33.9213 67.0842 34.4731 68.296C35.5767 70.7562 40.4695 69.2507 42.1618 68.4428C42.7872 68.1491 42.2354 67.1944 41.61 67.4881C40.2488 68.1491 38.7773 68.4796 37.269 68.3694C36.3861 68.296 35.6871 68.1491 35.5032 67.1577C35.3928 66.6069 35.7607 65.1748 35.871 64.5505C36.3125 62.0169 36.9747 59.5566 37.784 57.1331C37.968 56.5089 36.9011 56.2151 36.6804 56.8761Z" fill="#18191C"/>
</g>
</g>
<g id="Group_35">
<g id="Group_36">
<path id="Vector_20" d="M42.2352 78.0635C44.9943 77.6963 47.3855 75.9337 48.5995 73.4C48.8938 72.7758 47.9373 72.1883 47.643 72.8492C46.5393 75.1626 44.4792 76.6681 41.9409 76.9986C41.2419 77.1087 41.573 78.1736 42.2352 78.0635Z" fill="#18191C"/>
</g>
</g>
<g id="Group_37">
<g id="Group_38">
<path id="Vector_21" d="M21.3033 47.5124C22.0022 46.6679 23.2898 46.521 24.1727 47.2554C24.7245 47.7328 25.497 46.9249 24.9452 46.4843C23.6576 45.3827 21.6711 45.4561 20.5307 46.7413C20.0525 47.2554 20.825 48.0265 21.3033 47.5124Z" fill="#18191C"/>
</g>
</g>
<g id="Group_39">
<g id="Group_40">
<path id="Vector_22" d="M52.867 45.4561C54.0074 44.4647 55.7364 44.4647 56.8768 45.4194C57.4286 45.8601 58.2011 45.0889 57.6493 44.6483C56.0307 43.2529 53.6763 43.2897 52.0576 44.685C51.5426 45.1624 52.3519 45.9335 52.867 45.4561Z" fill="#18191C"/>
</g>
</g>
<g id="Group_41">
<g id="Group_42">
<path id="Vector_23" d="M67.3613 50.5235C71.3344 49.1281 75.4178 48.2836 79.6484 48.0632C80.3474 48.0265 80.3474 46.9249 79.6484 46.9617C75.3443 47.182 71.1504 48.0265 67.067 49.4586C66.4048 49.7156 66.6624 50.7805 67.3613 50.5235Z" fill="#18191C"/>
</g>
</g>
<path id="Vector_24" opacity="0.4" d="M72.843 4.77045C75.0502 7.59788 83.5482 19.2014 81.9663 35.1378C81.0834 44.0241 77.4047 50.5602 75.087 54.0119C76.4114 52.9837 77.5518 52.2861 78.3979 51.8087C80.642 50.5602 82.0767 49.7891 83.9161 49.8993C84.4679 49.936 85.7923 50.0461 86.7488 50.8173C89.5446 53.1673 88.5881 61.5028 83.6218 65.3951C80.8995 67.5248 77.699 67.7452 76.0803 67.7084C73.9834 70.6828 71.8497 73.6571 69.7528 76.6681C71.1507 76.8884 73.2844 77.072 75.7492 76.7048C76.8161 76.5579 81.0834 75.7868 85.1301 72.5555C89.1032 69.3608 90.7219 65.4685 91.7887 62.8247C94.7317 55.4807 94.1431 49.018 93.1131 37.3778C92.6716 32.2003 92.4141 29.5564 91.384 26.068C90.2804 22.2859 88.5514 16.7044 83.6218 11.7105C80.0902 8.03852 76.1171 5.98221 72.843 4.77045Z" fill="#042852"/>
<path id="Vector_25" opacity="0.48" d="M37.3058 36.166C40.9846 32.8979 45.1048 28.7118 49.0779 23.4976C51.5427 20.2663 53.6028 17.1451 55.295 14.2442C54.6697 17.549 54.0443 20.8538 53.4557 24.1586C52.0209 26.2149 49.6297 29.1525 45.9141 31.833C42.64 34.1464 39.5498 35.4316 37.3058 36.166Z" fill="#042852"/>
<path id="Vector_26" opacity="0.27" d="M63.462 31.9799C66.2579 41.2701 66.4786 49.0547 66.2211 54.1955C66.0372 58.0144 65.0071 78.0268 54.4491 84.9301C53.419 85.5911 50.8071 87.1333 50.9175 87.3536C51.0646 87.6107 55.9574 85.4442 58.6429 83.9754C62.8735 81.6987 69.3849 77.1088 75.4181 67.4147C76.4113 67.5248 81.2673 67.8553 84.7621 64.5138C88.9927 60.5113 89.7285 52.6533 86.3808 50.3399C83.9896 48.6875 79.4279 50.0829 75.4181 53.3877C75.0134 51.6985 74.4984 49.936 73.7994 48.0633C71.0403 40.7927 66.8833 35.505 63.462 31.9799Z" fill="#042852"/>
<path id="Vector_27" opacity="0.36" d="M54.5958 87.0599C55.5523 89.9975 56.5088 92.9351 57.4653 95.9094C58.7896 99.9486 60.0772 104.024 61.3648 108.064C62.1005 107.917 63.9032 107.403 65.485 105.787C67.0669 104.171 67.582 102.409 67.7659 101.674C66.3312 98.847 64.6389 94.5507 64.0503 89.1162C63.756 86.2887 63.8296 83.7918 64.0503 81.6988C60.9234 83.498 57.7596 85.2973 54.5958 87.0599Z" fill="#042852"/>
<path id="Vector_28" opacity="0.43" d="M36.239 58.1612C34.3996 62.0903 32.5602 65.9826 30.7208 69.9116C33.7374 69.8382 36.7172 69.8014 39.7339 69.728C37.968 69.1772 36.1654 68.6264 34.3996 68.0756C34.9882 64.7708 35.6136 61.466 36.239 58.1612Z" fill="#042852"/>
</g>
</svg>
