<svg width="240" height="143" viewBox="0 0 240 143" fill="none" xmlns="http://www.w3.org/2000/svg">
<g id="laptop">
<path id="Vector" d="M155.284 120.344C110.587 112.706 65.8893 105.068 21.1921 97.4304C48.3415 86.4879 75.491 75.5821 102.64 64.6395C145.094 74.0765 187.547 83.5136 229.963 92.9506C205.094 102.094 180.189 111.2 155.284 120.344Z" fill="white" stroke="#18191C" stroke-width="1.17937" stroke-miterlimit="10"/>
<g id="Group">
<g id="Group_2">
<path id="Vector_2" d="M153.444 120.894C153.592 121.335 153.702 121.812 153.849 122.253C154.033 122.841 154.916 122.73 154.916 122.106C154.916 121.739 154.916 121.409 154.916 121.041C154.916 120.344 153.812 120.344 153.812 121.041C153.812 121.482 153.739 121.886 153.555 122.29C153.923 122.29 154.254 122.29 154.622 122.29C154.474 121.812 154.438 121.372 154.548 120.858C154.217 120.895 153.886 120.931 153.555 121.005C153.665 121.115 153.665 121.188 153.592 121.298C153.923 121.335 154.254 121.372 154.585 121.445C154.511 121.188 154.548 120.968 154.695 120.748C154.364 120.637 153.996 120.564 153.665 120.454C153.592 121.041 153.518 121.592 153.444 122.18C153.408 122.473 153.739 122.731 153.996 122.731C154.327 122.731 154.511 122.473 154.548 122.18C154.622 121.592 154.695 121.041 154.769 120.454C154.842 119.903 153.996 119.756 153.739 120.16C153.444 120.637 153.371 121.188 153.518 121.739C153.628 122.216 154.291 122.253 154.511 121.886C154.806 121.445 154.806 120.895 154.474 120.491C154.217 120.16 153.555 120.123 153.481 120.637C153.334 121.298 153.371 121.996 153.555 122.657C153.739 123.208 154.438 123.134 154.622 122.657C154.806 122.143 154.916 121.629 154.916 121.115C154.548 121.115 154.18 121.115 153.812 121.115C153.812 121.482 153.812 121.813 153.812 122.18C154.18 122.143 154.548 122.07 154.879 122.033C154.732 121.592 154.622 121.115 154.474 120.674C154.327 119.903 153.26 120.197 153.444 120.894Z" fill="#18191C"/>
</g>
</g>
<g id="Group_3">
<g id="Group_4">
<path id="Vector_3" d="M154.29 123.538C160.213 120.491 166.688 118.875 173.052 117.076C176.179 116.194 179.269 115.24 182.249 113.991C185.119 112.816 187.878 111.347 190.71 110.025C197.001 107.088 203.807 105.178 210.392 103.012C217.234 100.735 224.04 98.4586 230.883 96.2187C231.545 95.9983 231.25 94.9335 230.588 95.1538C223.746 97.4304 216.94 99.7071 210.097 101.947C203.623 104.077 196.964 105.986 190.747 108.814C187.51 110.282 184.346 112.008 181.035 113.293C178.019 114.468 174.928 115.386 171.801 116.268C165.658 118.03 159.441 119.646 153.702 122.584C153.113 122.914 153.665 123.869 154.29 123.538Z" fill="#18191C"/>
</g>
</g>
<g id="Group_5">
<g id="Group_6">
<path id="Vector_4" d="M154.806 123.318C180.226 114.542 205.573 105.656 230.92 96.6226C232.906 95.9249 232.06 92.7303 230.037 93.428C204.727 102.461 179.343 111.347 153.923 120.123C151.936 120.821 152.782 124.016 154.806 123.318Z" fill="#18191C"/>
</g>
</g>
<g id="Group_7">
<g id="Group_8">
<path id="Vector_5" d="M151.936 87.8466C156.718 88.3239 160.802 91.2248 165.511 92.1428C166.21 92.2897 166.504 91.2248 165.805 91.0779C161.022 90.1232 156.865 87.2223 151.936 86.745C151.237 86.7083 151.237 87.8099 151.936 87.8466Z" fill="#18191C"/>
</g>
</g>
<g id="Group_9">
<g id="Group_10">
<path id="Vector_6" d="M165.842 91.6287C168.748 90.0498 171.47 88.1771 173.935 85.9739C174.45 85.4965 173.678 84.7254 173.163 85.2028C170.735 87.3325 168.123 89.1685 165.29 90.674C164.665 91.0412 165.216 91.9959 165.842 91.6287Z" fill="#18191C"/>
</g>
</g>
<g id="Group_11">
<g id="Group_12">
<path id="Vector_7" d="M153.077 85.7535C155.394 84.1011 157.786 82.5221 160.25 81.0533C160.876 80.6862 160.287 79.7314 159.699 80.0986C157.234 81.5674 154.843 83.1097 152.525 84.7988C151.936 85.2394 152.488 86.1941 153.077 85.7535Z" fill="#18191C"/>
</g>
</g>
<g id="Group_13">
<g id="Group_14">
<path id="Vector_8" d="M160.434 81.2369C164.628 82.8159 168.822 84.3581 173.052 85.9371C173.715 86.1941 174.009 85.1293 173.347 84.8722C169.153 83.2933 164.959 81.751 160.729 80.172C160.066 79.9517 159.772 81.0166 160.434 81.2369Z" fill="#18191C"/>
</g>
</g>
<g id="Group_15">
<g id="Group_16">
<path id="Vector_9" d="M148.625 92.0327C159.698 95.4476 170.624 99.3766 181.329 103.82C181.991 104.077 182.286 103.012 181.624 102.755C170.918 98.3118 159.992 94.3828 148.919 90.9678C148.22 90.7475 147.926 91.8124 148.625 92.0327Z" fill="#18191C"/>
</g>
</g>
<g id="Group_17">
<g id="Group_18">
<path id="Vector_10" d="M149.692 100.588C156.571 103.893 163.524 107.014 170.551 110.062C171.213 110.356 171.765 109.401 171.102 109.107C164.076 106.096 157.123 102.938 150.244 99.6337C149.618 99.34 149.066 100.295 149.692 100.588Z" fill="#18191C"/>
</g>
</g>
<g id="Group_19">
<g id="Group_20">
<path id="Vector_11" d="M150.685 110.025C154.437 111.935 158.19 113.881 161.942 115.79C162.568 116.121 163.119 115.166 162.494 114.836C158.742 112.926 154.989 110.98 151.237 109.071C150.611 108.74 150.06 109.695 150.685 110.025Z" fill="#18191C"/>
</g>
</g>
<g id="Group_21">
<g id="Group_22">
<path id="Vector_12" d="M152.819 110.356C158.006 105.949 163.451 101.91 169.116 98.1649C169.705 97.761 169.153 96.8062 168.564 97.2101C162.825 100.992 157.307 105.142 152.046 109.585C151.495 110.062 152.267 110.833 152.819 110.356Z" fill="#18191C"/>
</g>
</g>
<g id="Group_23">
<g id="Group_24">
<path id="Vector_13" d="M151.458 102.828C154.401 100.772 157.344 98.7157 160.287 96.6226C160.876 96.2187 160.324 95.264 159.735 95.6679C156.792 97.7242 153.849 99.7806 150.906 101.874C150.354 102.278 150.906 103.232 151.458 102.828Z" fill="#18191C"/>
</g>
</g>
<path id="Vector_14" d="M153.297 122.877C107.055 115.019 60.8126 107.161 14.5703 99.3031C10.2293 66.5122 5.85158 33.758 1.51062 0.967133C51.2845 7.65016 101.022 14.3332 150.796 21.0529C151.642 54.9822 152.488 88.9114 153.297 122.877Z" fill="white" stroke="#18191C" stroke-width="1.17937" stroke-miterlimit="10"/>
<g id="Group_25">
<g id="Group_26">
<path id="Vector_15" d="M70.8925 66.1451C66.8827 64.8966 64.7122 61.5184 64.3811 57.4424C64.05 53.2931 64.8594 49.2906 68.7221 47.1242C72.1433 45.2147 76.2268 45.7655 79.2802 48.0789C82.3336 50.3922 85.0559 55.1291 82.5911 58.7644C82.1864 59.3519 83.1429 59.9027 83.5476 59.3152C86.1963 55.4228 83.6947 50.2821 80.4574 47.6015C77.1097 44.8475 72.5848 44.003 68.6485 45.9491C64.0868 48.189 62.9096 52.7423 63.2775 57.4792C63.6454 62.0691 66.0733 65.8513 70.5982 67.2467C71.2604 67.4303 71.5547 66.3654 70.8925 66.1451Z" fill="#18191C"/>
</g>
</g>
<g id="Group_27">
<g id="Group_28">
<path id="Vector_16" d="M71.9227 66.549C70.2305 63.7583 70.7823 59.866 73.5046 57.9198C76.2269 55.9737 80.1264 56.7815 82.1865 59.2785C82.628 59.8293 83.4005 59.0581 82.9591 58.5073C80.5311 55.6065 75.9694 54.7986 72.8056 57.0386C69.6419 59.3152 68.9797 63.8684 70.9663 67.0998C71.3341 67.6873 72.2906 67.1365 71.9227 66.549Z" fill="#18191C"/>
</g>
</g>
<g id="Group_29">
<g id="Group_30">
<path id="Vector_17" d="M75.7116 68.0912C73.9826 66.2552 74.2401 62.8403 76.5577 61.5184C78.8386 60.1964 81.9287 61.702 82.6645 64.1255C82.8852 64.7864 83.9521 64.5294 83.7314 63.8317C82.7749 60.7473 78.9122 58.9112 76.0059 60.6004C73.0997 62.2895 72.7318 66.549 74.9391 68.8991C75.4173 69.3764 76.1899 68.6053 75.7116 68.0912Z" fill="#18191C"/>
</g>
</g>
<g id="Group_31">
<g id="Group_32">
<path id="Vector_18" d="M78.5444 70.6616C79.9791 71.1757 81.6346 70.3311 82.1864 68.9725C82.775 67.6138 82.0025 66.145 80.7149 65.5575C79.4273 64.9699 77.8822 65.3004 77.1833 66.5489C76.5211 67.7607 76.7418 69.4131 77.8454 70.2944C78.3973 70.735 79.1698 69.9639 78.618 69.5233C77.1465 68.3849 78.1765 65.7044 80.1263 66.5122C80.9724 66.8427 81.561 67.724 81.1563 68.642C80.7517 69.5233 79.7216 69.9639 78.8387 69.6334C78.1765 69.3764 77.8822 70.4413 78.5444 70.6616Z" fill="#18191C"/>
</g>
</g>
<path id="Vector_19" d="M150.796 21.0162L154.033 122.18" stroke="#18191C" stroke-width="1.17937" stroke-miterlimit="10"/>
<path id="Vector_20" d="M151.017 20.9428C152.01 54.2111 153.003 87.4794 153.997 120.748" stroke="#18191C" stroke-width="1.17937" stroke-miterlimit="10"/>
<path id="Vector_21" opacity="0.08" d="M87.3366 14.1863C89.7278 15.4348 110.255 26.5977 111.69 46.4264C112.499 57.369 107.128 65.6677 103.744 70.735C85.4972 98.1281 49.4084 102.975 39.6228 104.003C53.8597 113.44 103.597 144.542 157.969 142.706C170.072 142.302 188.834 141.458 209.178 130.295C224.445 121.923 234.341 111.164 240.006 104.003C236.511 101.837 233.053 99.7071 229.558 97.5406C203.88 106.317 178.166 115.093 152.488 123.832C151.163 89.9028 149.839 56.0103 148.515 22.0811C128.097 19.5107 107.717 16.8669 87.3366 14.1863Z" fill="#18191C"/>
</g>
</svg>
