<svg width="40" height="40" viewBox="0 0 40 40" fill="none" xmlns="http://www.w3.org/2000/svg">
<g id="quality-assurance 1" clip-path="url(#clip0_1_1795)">
<g id="Group">
<path id="Vector" d="M19.9999 7.40601L22.3075 12.0817L27.4674 12.8315L23.7337 16.471L24.6151 21.61L19.9999 19.1837L15.3848 21.61L16.2662 16.471L12.5325 12.8315L17.6923 12.0817L19.9999 7.40601Z" stroke="white" stroke-width="2" stroke-miterlimit="10"/>
<path id="Vector_2" d="M19.9999 29.2511C27.7281 29.2511 33.9931 22.9861 33.9931 15.2578C33.9931 7.52953 27.7281 1.26453 19.9999 1.26453C12.2716 1.26453 6.00659 7.52953 6.00659 15.2578C6.00659 22.9861 12.2716 29.2511 19.9999 29.2511Z" stroke="white" stroke-width="2" stroke-miterlimit="10"/>
<path id="Vector_3" d="M16.0601 28.6878L10.0361 36.979L8.94658 30.6268L2.5686 31.5536L8.55609 23.3125" stroke="white" stroke-width="2" stroke-miterlimit="10"/>
<path id="Vector_4" d="M23.9397 28.6878L29.9636 36.979L31.0532 30.6268L37.4312 31.5536L31.4436 23.3125" stroke="white" stroke-width="2" stroke-miterlimit="10"/>
</g>
</g>
<defs>
<clipPath id="clip0_1_1795">
<rect width="40" height="40" fill="white"/>
</clipPath>
</defs>
</svg>
