<svg width="105" height="159" viewBox="0 0 105 159" fill="none" xmlns="http://www.w3.org/2000/svg">
<g id="torso">
<path id="Vector" d="M17.387 8.40022C16.0627 17.0294 14.7751 25.732 13.5243 34.4714C8.66832 68.3639 4.4745 101.669 0.942871 134.423C1.01645 135.525 1.31075 137.287 2.41438 139.05C3.51802 140.849 4.98952 141.767 5.68848 142.244C12.3839 147.018 15.7316 149.441 19.116 151.057C35.3395 158.878 53.2919 157.96 53.2919 157.96C57.0811 157.777 64.6226 157.3 72.7159 154.068C73.1573 153.885 76.2475 152.452 82.4278 149.552C88.0196 146.945 89.0129 146.43 90.374 145.182C93.6114 142.208 94.8622 138.536 95.7083 135.929C97.5109 130.384 97.3269 125.684 97.2533 124.545C97.2533 124.545 96.8855 115.402 96.628 62.0113C96.5912 51.1422 97.658 35.169 103.397 15.4504C97.4373 12.5496 91.8455 9.86902 85.1134 6.63767C80.4781 4.39775 76.1739 2.34143 69.9936 1.60703C68.2278 1.38671 66.6459 1.31327 64.2915 1.34999C54.7267 1.42343 46.854 2.89222 43.4696 3.47974C36.8846 4.54462 27.9819 6.1603 17.387 8.40022Z" fill="#0A65CC"/>
<g id="Group">
<g id="Group_2">
<path id="Vector_2" d="M17.093 9.68539C28.4973 7.26187 40.0119 5.31571 51.5633 3.88363C52.0783 3.81019 52.3726 3.14923 51.8576 2.85547C51.7104 2.78203 51.5633 2.67187 51.3794 2.59843C50.754 2.23123 50.2021 3.18594 50.8275 3.55314C50.9747 3.62658 51.1218 3.73675 51.3058 3.81019C51.4161 3.47971 51.4897 3.11251 51.6001 2.78203C39.9383 4.21411 28.3133 6.16026 16.8355 8.6205C16.0997 8.76738 16.394 9.83227 17.093 9.68539Z" fill="#18191C"/>
</g>
</g>
<g id="Group_3">
<g id="Group_4">
<path id="Vector_3" d="M13.6716 28.9266C9.62494 57.7151 5.94616 86.5402 2.63526 115.439C2.23059 119.074 1.82593 122.673 1.42126 126.308C1.09017 129.466 0.170482 133.028 0.575148 136.186C0.943026 138.976 3.1503 140.739 5.17363 142.428C7.38089 144.264 9.69851 145.99 12.1265 147.569C22.096 153.995 33.7577 157.85 45.6034 158.548C59.6932 159.356 73.8565 155.757 85.8861 148.413C86.4747 148.046 85.9229 147.091 85.3343 147.459C64.2916 160.274 37.5101 160.788 16.0628 148.634C13.598 147.238 11.2068 145.696 8.92599 144.007C6.60835 142.281 2.85598 139.931 1.8995 137.104C1.45805 135.745 1.67877 134.239 1.82592 132.807C2.00986 131.008 2.2306 129.172 2.41454 127.373C2.78242 123.995 3.15029 120.616 3.55495 117.238C5.13683 103.468 6.75549 89.7349 8.52131 76.0016C10.5079 60.3956 12.568 44.7897 14.7752 29.2204C14.8488 28.5227 13.782 28.229 13.6716 28.9266Z" fill="#18191C"/>
</g>
</g>
<g id="Group_5">
<g id="Group_6">
<path id="Vector_4" d="M67.8599 1.27652C74.3345 2.56172 80.4045 5.53604 86.4377 8.06972C92.3605 10.5667 98.9456 12.5863 104.169 16.4052C104.758 16.8091 105.31 15.8544 104.721 15.4505C99.6078 11.705 93.1699 9.72213 87.3942 7.29861C81.1402 4.69149 74.8496 1.57029 68.1542 0.211654C67.4552 0.0647739 67.1609 1.12964 67.8599 1.27652Z" fill="#18191C"/>
</g>
</g>
<g id="Group_7">
<g id="Group_8">
<path id="Vector_5" d="M96.7018 63.5535C96.1132 79.0126 95.5246 94.4717 96.0764 109.894C96.3339 117.385 97.5111 125.17 96.1132 132.624C94.936 138.756 91.4779 144.888 85.3343 147.165C84.6721 147.422 84.9664 148.487 85.6286 148.23C95.4142 144.594 97.9526 133.468 97.8054 124.141C97.7318 117.826 97.18 111.51 97.0329 105.157C96.8857 98.6945 96.9593 92.2685 97.0697 85.8058C97.2168 78.3884 97.5111 70.971 97.7686 63.5535C97.8422 62.8191 96.7386 62.8191 96.7018 63.5535Z" fill="#18191C"/>
</g>
</g>
<path id="Vector_6" opacity="0.38" d="M91.4041 54.851C89.4543 61.534 86.4009 68.8413 81.6921 76.1118C60.6127 108.462 22.0222 114.925 12.1631 116.283C25.4067 117.679 38.7975 119.184 52.3354 120.8C67.2713 122.563 82.0232 124.435 96.5544 126.345C95.6347 109.931 95.6347 96.4179 95.8554 86.7606C96.2601 66.7849 97.6948 50.6282 95.0829 50.1141C94.4575 49.9672 93.3538 50.6649 91.4041 54.851Z" fill="#042852"/>
<path id="Vector_7" opacity="0.42" d="M95.9292 66.8583C94.6048 70.7507 92.5814 76.2586 89.6016 82.6112C85.4078 91.6076 81.3979 100.273 76.2109 105.598C61.7165 120.469 33.3898 114.043 33.3163 115.072C33.2795 115.659 43.6536 117.312 96.0395 122.122C96.0395 103.688 96.0027 85.2917 95.9292 66.8583Z" fill="#042852"/>
</g>
</svg>
