<svg width="24" height="22" viewBox="0 0 24 22" fill="none" xmlns="http://www.w3.org/2000/svg">
<g id="Warning">
<path id="Vector" d="M12 8.9375V12.375" stroke="white" stroke-width="1.5" stroke-linecap="round" stroke-linejoin="round"/>
<path id="Vector_2" d="M10.7015 3.43619L2.45374 16.498C2.32177 16.707 2.25217 16.9442 2.25195 17.1857C2.25174 17.4272 2.32091 17.6645 2.4525 17.8737C2.5841 18.0829 2.77348 18.2566 3.0016 18.3774C3.22971 18.4982 3.48851 18.5618 3.75196 18.5618H20.2475C20.5109 18.5618 20.7697 18.4982 20.9979 18.3774C21.226 18.2566 21.4154 18.0829 21.547 17.8737C21.6786 17.6645 21.7477 17.4272 21.7475 17.1857C21.7473 16.9442 21.6777 16.707 21.5457 16.498L13.2979 3.43619C13.1662 3.22752 12.9769 3.05427 12.749 2.93384C12.5212 2.8134 12.2628 2.75 11.9997 2.75C11.7367 2.75 11.4783 2.8134 11.2504 2.93384C11.0226 3.05427 10.8333 3.22752 10.7015 3.43619V3.43619Z" stroke="white" stroke-width="1.5" stroke-linecap="round" stroke-linejoin="round"/>
<path id="Vector_3" d="M12 16.5C12.6213 16.5 13.125 16.0383 13.125 15.4688C13.125 14.8992 12.6213 14.4375 12 14.4375C11.3787 14.4375 10.875 14.8992 10.875 15.4688C10.875 16.0383 11.3787 16.5 12 16.5Z" fill="white"/>
</g>
</svg>
